<svg width="26" height="30" viewBox="0 0 26 30" fill="none" xmlns="http://www.w3.org/2000/svg">
<path fill-rule="evenodd" clip-rule="evenodd" d="M26 8.43223V26.2336C26 28.2948 24.3286 29.9813 22.2857 29.9813H20.4286V28.1074H22.2857C23.3071 28.1074 24.1429 27.2642 24.1429 26.2336V8.43223H20.4286C18.8871 8.43223 17.6429 7.17676 17.6429 5.62149V1.87383H7.42857C6.40714 1.87383 5.57143 2.71705 5.57143 3.74766V20.6121H3.71429V3.74766C3.71429 1.68645 5.38571 0 7.42857 0H17.6429L26 8.43223ZM12.0157 28.6508C11.8857 28.3885 11.83 28.1074 11.8114 27.8076H13.2229C13.2786 28.1074 13.4457 28.3698 13.6871 28.5197C13.8171 28.6134 13.9657 28.6883 14.1514 28.7258C14.3186 28.782 14.5229 28.8007 14.7457 28.8007C15.0429 28.8007 15.3029 28.7633 15.5071 28.6696C15.6929 28.5946 15.86 28.4635 15.99 28.3136C16.1014 28.1449 16.1571 27.9575 16.1571 27.7701C16.1571 27.5265 16.0643 27.3017 15.8786 27.1518C15.6929 27.0019 15.3957 26.8894 15.0243 26.7958L13.8729 26.5334C13.52 26.4585 13.1857 26.3273 12.87 26.1399C12.5914 25.9713 12.3686 25.7277 12.22 25.4466C12.0529 25.1468 11.9786 24.8095 11.9971 24.4722C11.9971 24.0225 12.1086 23.6102 12.35 23.273C12.5914 22.9357 12.9071 22.6733 13.3343 22.4859C13.7429 22.2986 14.2257 22.2049 14.7829 22.2049C15.34 22.2049 15.8229 22.2986 16.2314 22.4859C16.64 22.6733 16.9371 22.9357 17.16 23.2542C17.3829 23.5728 17.5129 23.9288 17.5314 24.3223H16.1386C16.1014 24.1537 16.0271 23.985 15.9157 23.8351C15.7857 23.6852 15.6371 23.5728 15.4514 23.4978C15.2286 23.4041 15.0057 23.3666 14.7643 23.3666C14.3557 23.3666 14.04 23.4603 13.8171 23.6477C13.5943 23.8164 13.4643 24.0787 13.4829 24.3598C13.4829 24.5846 13.5757 24.772 13.7429 24.9219C13.9657 25.0906 14.2257 25.203 14.5043 25.2592L15.6557 25.5215C16.0643 25.6152 16.4171 25.7464 16.7143 25.9151C16.9929 26.065 17.2343 26.3086 17.42 26.5896C17.5871 26.8707 17.68 27.2267 17.68 27.639C17.68 28.1074 17.5686 28.5197 17.3271 28.8757C17.0857 29.2505 16.7329 29.5315 16.3243 29.7002C15.8971 29.8876 15.3586 30 14.7271 30C14.2629 30 13.8357 29.9438 13.5014 29.8314C13.1857 29.7377 12.87 29.569 12.61 29.3629C12.3871 29.1755 12.2014 28.9319 12.0714 28.6508H12.0157ZM6.55571 22.3548H4.90286L3.38 25.0531H3.30571L1.76429 22.3548H0.0185714L2.30286 26.065L0 29.8501H1.59714L3.17571 27.208H3.23143L4.81 29.8501H6.5L4.17857 26.1212L6.53714 22.3548H6.55571ZM11.6257 28.5759H8.46857V22.3548H7.00143V29.8501H11.6257V28.5759Z" fill="#003344"/>
</svg>
