<?xml version="1.0" encoding="utf-8"?>
<!-- Generator: Adobe Illustrator 27.9.5, SVG Export Plug-In . SVG Version: 9.03 Build 54986)  -->
<svg version="1.1" id="Warstwa_1" xmlns="http://www.w3.org/2000/svg" xmlns:xlink="http://www.w3.org/1999/xlink" x="0px" y="0px"
	 viewBox="0 0 30 30" style="enable-background:new 0 0 30 30;" xml:space="preserve">
<style type="text/css">
	.st0{fill-rule:evenodd;clip-rule:evenodd;fill:#FFFFFF;}
</style>
<path class="st0" d="M3.7,1.9c-1,0-1.9,0.8-1.9,1.9v22.5c0,1,0.8,1.9,1.9,1.9h22.5c1,0,1.9-0.8,1.9-1.9V3.7c0-1-0.8-1.9-1.9-1.9H3.7
	z M3.7,30C1.7,30,0,28.3,0,26.2V3.7C0,1.7,1.7,0,3.7,0h22.5C28.3,0,30,1.7,30,3.7l0,22.5c0,2.1-1.7,3.8-3.8,3.8H3.7z M8.4,14.1
	c-0.5,0-0.9,0.4-0.9,0.9s0.4,0.9,0.9,0.9h10.9l-4,4c-0.4,0.4-0.4,1,0,1.3s1,0.4,1.3,0l5.6-5.6c0.4-0.4,0.4-1,0-1.3l-5.6-5.6
	c-0.4-0.4-1-0.4-1.3,0s-0.4,1,0,1.3l4,4L8.4,14.1L8.4,14.1z"/>
</svg>
