<svg width="54" height="40" viewBox="0 0 54 40" fill="none" xmlns="http://www.w3.org/2000/svg">
<path d="M12.3991 14.0098H2.35886V10.2816H12.3991V14.0098ZM18.5234 19.9553H8.48313V16.2271H18.5234V19.9553ZM6.26587 19.9553H2.34992V16.2271H6.26587V19.9553ZM30.3159 0C29.6275 0 28.9302 0.268216 28.4027 0.795709L25.8725 3.32588C25.1751 4.02325 24.9337 5.01565 25.1572 5.9097L26.5877 11.2651C26.7755 11.9624 27.142 12.6151 27.6874 13.1605C27.7053 13.1784 32.6494 18.1225 32.6494 18.1225C33.9011 19.3742 35.5462 20.0089 37.1912 20.0089C37.9601 20.0089 38.7379 19.8748 39.4621 19.5977C39.5962 19.544 39.7303 19.4636 39.8376 19.3473C40.2668 18.9182 40.2668 18.2119 39.8376 17.7827C39.623 17.5682 39.337 17.4609 39.0509 17.4609C38.9614 17.4609 38.8631 17.4698 38.7737 17.4966H38.729L38.6217 17.5414C38.1568 17.7112 37.6651 17.8006 37.1733 17.8006C36.0915 17.8006 35.0187 17.3894 34.1961 16.5668C30.8941 13.2648 29.2401 11.6108 29.2341 11.6048C28.9749 11.3456 28.796 11.0237 28.7066 10.6929L27.2851 5.38221C27.2404 5.21234 27.2851 5.03353 27.4103 4.89942L29.9673 2.34242C30.0567 2.26196 30.1818 2.21726 30.2981 2.21726C30.3428 2.21726 30.3875 2.21726 30.4322 2.23514L35.7518 3.65668C36.0647 3.74609 36.3955 3.91596 36.6548 4.17523C36.6637 4.18418 41.6168 9.13724 41.6168 9.13724C42.8059 10.3263 43.1367 12.0519 42.6092 13.536C42.4304 13.9473 42.5019 14.439 42.8416 14.7698C43.0562 14.9844 43.3423 15.0916 43.6284 15.0916C43.9145 15.0916 44.1917 14.9844 44.4152 14.7698C44.5225 14.6625 44.6029 14.5373 44.6566 14.4122C45.5327 12.1144 45.041 9.42333 43.1903 7.57264C39.8823 4.26464 38.2283 2.61064 38.2283 2.61064C37.6829 2.06527 37.0213 1.6987 36.3329 1.51095L30.9954 0.0894055C30.7719 0.0357622 30.5484 0 30.3159 0ZM47.1689 18.793L51.4603 23.0845C51.7017 23.3259 51.7017 23.7193 51.4603 23.9517L50.8077 24.6044C50.6914 24.7117 50.5395 24.7743 50.3875 24.7743C50.2534 24.7743 50.1103 24.7295 50.003 24.6401L45.6669 20.3129L47.1778 18.802L47.1689 18.793ZM12.3901 25.8918H2.34992V22.1636H12.3901V25.8918ZM24.6476 22.1636V25.8918H14.6074V22.1636H24.6476ZM38.0495 11.873C37.7724 11.873 37.4863 11.9803 37.2717 12.1949C36.8425 12.6241 36.8425 13.3304 37.2717 13.7595L41.742 18.2298C41.9565 18.4443 42.2337 18.5516 42.5287 18.5516C42.636 18.5516 42.7433 18.5338 42.8416 18.5069L43.7625 18.2298L44.1827 18.65L43.3155 19.5172C43.1099 19.7228 42.9936 20.0089 42.9936 20.304C42.9936 20.599 43.1099 20.8762 43.3155 21.0907L48.4027 26.1779C48.957 26.7233 49.6722 26.9915 50.3875 26.9915C51.1027 26.9915 51.8358 26.7143 52.3901 26.16L53.0339 25.5163C54.1336 24.4077 54.1336 22.6196 53.0339 21.511L47.9646 16.4417C47.75 16.2271 47.4639 16.1198 47.1778 16.1198C46.8917 16.1198 46.6146 16.2271 46.391 16.4417L45.7473 17.0943L44.8711 16.2092C44.6566 15.9946 44.3794 15.8873 44.0844 15.8873C43.9771 15.8873 43.8698 15.9052 43.7715 15.9321L42.8506 16.2092L38.8542 12.2128C38.6396 11.9982 38.3535 11.8909 38.0674 11.8909L38.0495 11.873ZM18.5234 28.1091V31.8373H8.48313V28.1091H18.5234ZM30.7808 31.8373H20.7406V28.1091H30.7808V31.8373ZM43.0383 31.8373H32.9981V28.1091H43.0383V31.8373ZM6.26587 28.1091V31.8373H2.35886V28.1091H6.27482H6.26587ZM12.3901 34.0545V37.7827H2.35886V34.0545H12.3991H12.3901ZM24.6476 34.0545V37.7827H14.6074V34.0545H24.6476ZM36.9051 37.7827H26.8649V34.0545H36.9051V37.7827ZM49.1626 37.7827H39.1224V34.0545H49.1626V37.7827ZM1.24129 8.06437C0.946251 8.06437 0.669094 8.1806 0.463461 8.38623C0.257829 8.59186 0.141602 8.87796 0.141602 9.173V38.8914C0.141602 39.1864 0.257829 39.4636 0.463461 39.6781C0.669094 39.8927 0.955191 40 1.25023 40H50.2712C50.8792 40 51.3799 39.4993 51.3799 38.8914V32.9459C51.3799 32.338 50.8881 31.8373 50.2712 31.8373H45.2467V27.0004C45.2467 26.3925 44.7549 25.8918 44.138 25.8918H26.8649V22.1636H30.9686C31.5766 22.1636 32.0772 21.6629 32.0772 21.055C32.0772 20.447 31.5855 19.9464 30.9686 19.9464H20.7406V16.2181H23.9771C24.5851 16.2181 25.0857 15.7175 25.0857 15.1095C25.0857 14.5016 24.594 14.0009 23.9771 14.0009H14.6074V10.2727H21.429C22.037 10.2727 22.5377 9.77202 22.5377 9.16406C22.5377 8.5561 22.0459 8.05543 21.429 8.05543H1.24129V8.06437Z" fill="white"/>
</svg>
