<svg width="30" height="30" viewBox="0 0 30 30" fill="none" xmlns="http://www.w3.org/2000/svg">
<g clip-path="url(#clip0_202_2129)">
<path fill-rule="evenodd" clip-rule="evenodd" d="M26.25 28.125C27.2812 28.125 28.125 27.2812 28.125 26.25L28.125 3.75C28.125 2.71875 27.2812 1.875 26.25 1.875L3.75 1.875C2.71875 1.875 1.875 2.71875 1.875 3.75L1.875 26.25C1.875 27.2812 2.71875 28.125 3.75 28.125L26.25 28.125ZM26.25 -1.63918e-07C28.3125 -7.3763e-08 30 1.6875 30 3.75L30 26.25C30 28.3125 28.3125 30 26.25 30L3.75 30C1.6875 30 -3.14493e-06 28.3125 -3.05477e-06 26.25L-2.07127e-06 3.75C-1.98111e-06 1.6875 1.6875 -1.23758e-06 3.75 -1.14742e-06L26.25 -1.63918e-07ZM21.5625 15.9375C22.0875 15.9375 22.5 15.525 22.5 15C22.5 14.475 22.0875 14.0625 21.5625 14.0625L10.7062 14.0625L14.7375 10.0312C15.1125 9.65625 15.1125 9.075 14.7375 8.7C14.3625 8.325 13.7812 8.325 13.4062 8.7L7.78125 14.325C7.40625 14.7 7.40625 15.2812 7.78125 15.6562L13.4062 21.2812C13.7812 21.6562 14.3625 21.6562 14.7375 21.2812C15.1125 20.9062 15.1125 20.325 14.7375 19.95L10.7062 15.9187L21.5625 15.9187L21.5625 15.9375Z" fill="#003344"/>
</g>
<defs>
<clipPath id="clip0_202_2129">
<rect width="30" height="30" fill="white" transform="translate(30) rotate(90)"/>
</clipPath>
</defs>
</svg>
