<svg width="26" height="30" viewBox="0 0 26 30" fill="none" xmlns="http://www.w3.org/2000/svg">
<path fill-rule="evenodd" clip-rule="evenodd" d="M26 8.4375V26.25C26 28.3125 24.3286 30 22.2857 30H20.4286V28.125H22.2857C23.3071 28.125 24.1429 27.2813 24.1429 26.25V8.4375H20.4286C18.8871 8.4375 17.6429 7.18125 17.6429 5.625V1.875H7.42857C6.40714 1.875 5.57143 2.71875 5.57143 3.75V20.625H3.71429V3.75C3.71429 1.6875 5.38571 0 7.42857 0H17.6429L26 8.4375ZM2.97143 22.2188H0V29.7188H1.46714V27.2063H2.95286C3.49143 27.2063 3.93714 27.0938 4.30857 26.8875C4.68 26.6625 4.97714 26.3812 5.16286 26.0062C5.36714 25.6125 5.46 25.1812 5.46 24.7312C5.46 24.2625 5.36714 23.8313 5.16286 23.4563C4.97714 23.0813 4.68 22.7625 4.30857 22.5562C3.93714 22.3312 3.49143 22.2188 2.95286 22.2188H2.97143ZM3.97429 24.7125C3.97429 24.9563 3.91857 25.2 3.80714 25.425C3.71429 25.6125 3.54714 25.7813 3.36143 25.875C3.13857 25.9875 2.89714 26.0438 2.65571 26.025H1.43V23.3813H2.65571C3.06429 23.3813 3.38 23.4937 3.60286 23.7187C3.82571 23.9437 3.93714 24.2813 3.93714 24.6938L3.97429 24.7125ZM9.21143 22.2188H6.24V29.7188H7.70714V27.2063H9.19286C9.73143 27.2063 10.1771 27.0938 10.5486 26.8875C10.92 26.6625 11.2171 26.3812 11.4029 26.0062C11.6071 25.6312 11.7 25.2 11.7 24.7312C11.7 24.2625 11.6071 23.8313 11.4029 23.4563C11.2171 23.0813 10.92 22.7625 10.5486 22.5562C10.1771 22.3312 9.73143 22.2188 9.19286 22.2188H9.21143ZM10.2329 24.7125C10.2329 24.9563 10.1771 25.2 10.0657 25.425C9.97286 25.6125 9.80571 25.7813 9.62 25.875C9.39714 25.9875 9.15571 26.0438 8.91429 26.025H7.68857V23.3813H8.91429C9.32286 23.3813 9.63857 23.4937 9.86143 23.7187C10.0843 23.9437 10.1957 24.2813 10.1957 24.6938L10.2329 24.7125ZM15.3771 23.4563V29.7188H13.91V23.4563H11.8114V22.2188H17.5129V23.4563H15.3957H15.3771Z" fill="#003344"/>
</svg>
