<svg width="36" height="40" viewBox="0 0 36 40" fill="none" xmlns="http://www.w3.org/2000/svg">
<g clip-path="url(#clip0_254_258)">
<path d="M28.4494 10.7418C29.0345 10.7418 29.4943 10.2821 29.4943 9.69691C29.4943 9.11175 29.0345 8.65198 28.4494 8.65198H14.8652C14.2801 8.65198 13.8203 9.11175 13.8203 9.69691C13.8203 10.2821 14.2801 10.7418 14.8652 10.7418H28.4494Z" fill="white"/>
<path d="M29.4943 15.9666C29.4943 16.5517 29.0345 17.0115 28.4494 17.0115H14.8652C14.2801 17.0115 13.8203 16.5517 13.8203 15.9666C13.8203 15.3814 14.2801 14.9216 14.8652 14.9216H28.4494C29.0345 14.9216 29.4943 15.3814 29.4943 15.9666Z" fill="white"/>
<path d="M23.2247 23.281C23.8099 23.281 24.2696 22.8213 24.2696 22.2361C24.2696 21.6509 23.8099 21.1912 23.2247 21.1912H14.8652C14.2801 21.1912 13.8203 21.6509 13.8203 22.2361C13.8203 22.8213 14.2801 23.281 14.8652 23.281H23.2247Z" fill="white"/>
<path fill-rule="evenodd" clip-rule="evenodd" d="M12.6291 0C9.99585 0 7.82239 1.94357 7.46711 4.47231H5.48174C2.59773 4.47231 0.25708 6.81296 0.25708 9.69697V34.7753C0.25708 37.6594 2.59773 40 5.48174 40H23.2456C25.8788 40 28.0523 38.0564 28.4076 35.5277H30.5601C33.4441 35.5277 35.7848 33.187 35.7848 30.303V5.22466C35.7848 2.34065 33.4441 0 30.5601 0H12.6291ZM5.46084 6.56217H7.40442V30.303C7.40442 33.187 9.74506 35.5277 12.6291 35.5277H26.2759C25.9415 36.907 24.7085 37.9101 23.2247 37.9101H5.46084C3.72625 37.9101 2.32605 36.5099 2.32605 34.7753V9.69697C2.32605 7.96238 3.72625 6.56217 5.46084 6.56217ZM9.49428 5.22466C9.49428 3.49007 10.8945 2.08986 12.6291 2.08986H30.5392C32.2738 2.08986 33.674 3.49007 33.674 5.22466V30.303C33.674 32.0376 32.2738 33.4378 30.5392 33.4378H12.6291C10.8945 33.4378 9.49428 32.0376 9.49428 30.303V5.22466Z" fill="white"/>
</g>
<defs>
<clipPath id="clip0_254_258">
<rect width="35.5277" height="40" fill="white" transform="translate(0.236084)"/>
</clipPath>
</defs>
</svg>
