<svg width="33" height="26" viewBox="0 0 33 26" fill="none" xmlns="http://www.w3.org/2000/svg">
<path d="M17.6935 4.80038H17.5C14.763 4.80038 12.3578 5.30014 10.2291 6.06294L4.06398 0.197276C3.78752 -0.0657586 3.34518 -0.0657586 3.09637 0.197276C2.81991 0.46031 2.81991 0.881165 3.09637 1.1179L8.87441 6.61531C3.64929 8.95632 0.718799 12.6914 0.276461 13.2964L0 13.6646L0.276461 14.0329C0.85703 14.822 5.72275 21.0033 14.3207 22.2922C14.4036 22.3185 14.5142 22.3448 14.5972 22.3448H14.6524C15.5648 22.4763 16.5047 22.5289 17.5 22.5289H17.7212C20.2093 22.5026 22.4487 22.0554 24.4392 21.3715L31.2125 27.8159C31.3507 27.9474 31.5166 28 31.7101 28C31.9036 28 32.0695 27.9474 32.2077 27.8159C32.4842 27.5528 32.4842 27.132 32.2077 26.8953L25.7938 20.8718C31.2125 18.5571 34.2812 14.6379 34.7235 14.0329L35 13.6646L34.7235 13.2964C34.0877 12.4284 28.1714 4.90559 17.6935 4.80038ZM1.68641 13.6909C2.01817 13.2701 2.59874 12.6388 3.40047 11.876L12.4684 20.6087C6.46919 19.0305 2.79226 15.0324 1.68641 13.6909ZM17.6935 21.24C16.7259 21.24 15.7859 21.1874 14.9013 21.0822L4.42338 10.9554C5.00395 10.4819 5.66746 9.98215 6.38626 9.50869L18.5506 21.2137C18.2741 21.24 17.97 21.24 17.6935 21.24ZM20.3199 21.0559L7.57504 8.77219C8.29384 8.35134 9.09558 7.95679 9.92496 7.61484L23.3333 20.372C22.3934 20.6613 21.3705 20.8981 20.3199 21.0559ZM20.6793 16.0056L19.5182 14.9009C19.7946 14.5063 19.9605 14.0592 19.9605 13.5594C19.9605 12.2705 18.8547 11.2184 17.5 11.2184C17.0024 11.2184 16.5047 11.3762 16.09 11.6393L15.0948 10.6923C15.7859 10.1663 16.643 9.90324 17.5276 9.90324C19.7117 9.90324 21.5087 11.5867 21.5087 13.6909C21.5363 14.5326 21.2322 15.3481 20.6793 16.0056ZM18.4953 13.9277L17.113 12.6125C17.2235 12.5599 17.3618 12.5336 17.5 12.5336C18.1082 12.5336 18.5782 13.007 18.5782 13.5594C18.5782 13.6909 18.5506 13.8225 18.4953 13.9277ZM24.7433 19.8722L21.6746 16.9526C22.4763 16.0319 22.9186 14.9009 22.9186 13.6909C22.9186 10.8765 20.5134 8.58807 17.5553 8.58807C16.2836 8.58807 15.0948 9.00892 14.1272 9.77172L11.3349 7.11508C13.2149 6.5101 15.316 6.11555 17.6935 6.14185C26.5679 6.22076 31.9313 12.0075 33.3136 13.6909C32.346 14.8483 29.4431 18.031 24.7433 19.8722Z" fill="#003344"/>
</svg>
