<svg width="44" height="40" viewBox="0 0 44 40" fill="none" xmlns="http://www.w3.org/2000/svg">
<path d="M43.0174 23.8668C42.9286 23.5605 42.7333 23.3208 42.4536 23.1743L41.1439 22.4817C41.1439 22.4462 41.1439 22.4151 41.1439 22.3796C41.1439 17.1632 37.0329 12.8923 31.8831 12.6304V6.5394C31.8831 6.40622 31.8298 6.27747 31.7366 6.18424L25.7077 0.146504C25.6145 0.0532741 25.4858 0 25.3526 0H1.44136C1.16611 0 0.939697 0.226415 0.939697 0.501665V39.4939C0.939697 39.7736 1.16611 39.9956 1.44136 39.9956H31.3814C31.6611 39.9956 31.8831 39.7691 31.8831 39.4939V32.1243C33.832 32.0266 35.6744 31.3607 37.2416 30.1842C38.7466 29.0522 39.9053 27.485 40.549 25.727L40.8598 25.9223C41.0462 26.0377 41.2505 26.0999 41.4591 26.0999C41.5523 26.0999 41.6456 26.0866 41.7432 26.0644C42.0496 25.9889 42.2982 25.8024 42.458 25.5272L42.9064 24.7503C43.0662 24.475 43.1017 24.1687 43.0129 23.8668H43.0174ZM25.8542 1.71809L30.1694 6.0333H25.8542V1.71809ZM1.94747 38.9922V1.00777H24.8465V6.5394C24.8465 6.81909 25.0729 7.04107 25.3481 7.04107H30.8798V12.6304C25.7299 12.8923 21.6189 17.1676 21.6189 22.3796C21.6189 27.5916 25.7299 31.8668 30.8798 32.1287V38.9922H1.94747ZM31.3859 31.1343C26.5557 31.1343 22.6312 27.2053 22.6312 22.3796C22.6312 17.5538 26.5601 13.6249 31.3859 13.6249C36.2116 13.6249 39.9009 17.3185 40.1317 21.9445L35.266 19.3696C35.4258 19.1698 35.5901 18.9745 35.7632 18.788C35.8121 18.788 35.8653 18.7791 35.9142 18.7658C36.1228 18.7081 36.3004 18.5749 36.407 18.3885L36.7799 17.7447C37.0773 17.2297 36.8997 16.5727 36.3848 16.2752L34.0407 14.9212C33.5257 14.6238 32.8687 14.8013 32.5712 15.3163L32.1983 15.96C32.0918 16.1465 32.0607 16.364 32.1184 16.5771C32.1317 16.626 32.1495 16.6748 32.1717 16.7236C31.7721 18.0422 31.0707 19.2586 30.1295 20.2619C29.872 20.2797 29.6234 20.4218 29.4858 20.6659L29.1128 21.3097C28.8154 21.8246 28.993 22.4817 29.508 22.7791L31.852 24.1332C32.0163 24.2309 32.2027 24.2797 32.3892 24.2797C32.4824 24.2797 32.5757 24.2664 32.6689 24.2442C32.9486 24.1687 33.1794 23.9911 33.3215 23.7425L33.6944 23.0988C33.832 22.859 33.8365 22.5705 33.721 22.3396C33.7965 22.0954 33.8809 21.8557 33.9741 21.6204L39.6833 25.1987C38.4802 28.768 35.1817 31.1521 31.3859 31.1521V31.1343ZM35.9097 17.2342L35.6345 17.7092L33.1706 16.2886L33.4458 15.8135C33.4636 15.7825 33.508 15.7691 33.539 15.7869L35.8831 17.141C35.9142 17.1587 35.9275 17.2031 35.9097 17.2342ZM33.024 17.3629L34.7777 18.3751C33.9386 19.343 33.2904 20.4617 32.8731 21.6737L31.1195 20.6615C31.9586 19.6937 32.6067 18.5749 33.024 17.3629ZM29.9874 21.8024L30.2627 21.3274L32.7266 22.7481L32.4514 23.2231C32.4514 23.2231 32.4203 23.2497 32.4114 23.2542C32.3981 23.2542 32.3803 23.2586 32.3581 23.2497L30.0141 21.8957C29.983 21.8779 29.9697 21.8335 29.9874 21.8024ZM42.0363 24.2486L41.5879 25.0255C41.5657 25.061 41.5479 25.0788 41.5035 25.0877C41.4636 25.0966 41.4369 25.0921 41.4014 25.0699L34.4003 20.6792C34.4891 20.515 34.5823 20.3507 34.68 20.1909L41.983 24.0577C42.0185 24.0755 42.0363 24.0977 42.0496 24.1376C42.0629 24.1776 42.0585 24.2042 42.0363 24.2397V24.2486ZM28.6556 24.5993C27.9408 24.5993 27.3592 25.1809 27.3592 25.8957V26.2153C26.6977 26.3574 26.205 26.9434 26.205 27.6493V28.6437C26.205 28.9234 26.4314 29.1454 26.7066 29.1454H36.0607C36.3404 29.1454 36.5623 28.919 36.5623 28.6437V27.6493C36.5623 26.9478 36.0651 26.3618 35.4036 26.2153V25.8957C35.4036 25.1809 34.822 24.5993 34.1073 24.5993H28.6467H28.6556ZM35.559 27.6448V28.1332H27.2083V27.6448C27.2083 27.3918 27.4125 27.1876 27.6656 27.1876H35.0973C35.3504 27.1876 35.5546 27.3918 35.5546 27.6448H35.559ZM34.4003 25.8957V26.1798H28.3626V25.8957C28.3626 25.7403 28.4957 25.6071 28.6511 25.6071H34.1073C34.2627 25.6071 34.3959 25.7403 34.3959 25.8957H34.4003ZM7.76323 27.5738H20.7444C21.024 27.5738 21.246 27.8002 21.246 28.0755C21.246 28.3507 21.0196 28.5771 20.7444 28.5771H7.76323C7.48354 28.5771 7.26156 28.3507 7.26156 28.0755C7.26156 27.8002 7.48798 27.5738 7.76323 27.5738ZM19.5723 22.1043C19.852 22.1043 20.074 22.3307 20.074 22.606C20.074 22.8812 19.8476 23.1077 19.5723 23.1077H13.7965C13.5168 23.1077 13.2949 22.8812 13.2949 22.606C13.2949 22.3307 13.5213 22.1043 13.7965 22.1043H19.5723ZM16.6866 19.3696H20.1406C20.4203 19.3696 20.6423 19.596 20.6423 19.8713C20.6423 20.1465 20.4158 20.3729 20.1406 20.3729H16.6866C16.407 20.3729 16.185 20.1465 16.185 19.8713C16.185 19.596 16.4114 19.3696 16.6866 19.3696ZM4.50906 28.0755C4.50906 27.7958 4.73548 27.5738 5.01073 27.5738H5.57011C5.8498 27.5738 6.07177 27.8002 6.07177 28.0755C6.07177 28.3507 5.84536 28.5771 5.57011 28.5771H5.01073C4.73104 28.5771 4.50906 28.3507 4.50906 28.0755ZM4.50906 25.3407C4.50906 25.061 4.73548 24.8391 5.01073 24.8391H19.7011C19.9808 24.8391 20.2027 25.0655 20.2027 25.3407C20.2027 25.616 19.9763 25.8424 19.7011 25.8424H5.01517C4.73548 25.8424 4.5135 25.616 4.5135 25.3407H4.50906ZM10.3781 30.8102C10.3781 31.0899 10.1517 31.3119 9.87643 31.3119H5.01517C4.73548 31.3119 4.5135 31.0855 4.5135 30.8102C4.5135 30.535 4.73992 30.3085 5.01517 30.3085H9.87643C10.1561 30.3085 10.3781 30.535 10.3781 30.8102ZM4.50906 19.8713C4.50906 19.5916 4.73548 19.3696 5.01073 19.3696H14.9286C15.2083 19.3696 15.4303 19.596 15.4303 19.8713C15.4303 20.1465 15.2038 20.3729 14.9286 20.3729H5.01517C4.73548 20.3729 4.5135 20.1465 4.5135 19.8713H4.50906ZM23.2083 30.8102C23.2083 31.0899 22.9819 31.3119 22.7066 31.3119H12.0696C11.7899 31.3119 11.5679 31.0855 11.5679 30.8102C11.5679 30.535 11.7943 30.3085 12.0696 30.3085H22.7066C22.9863 30.3085 23.2083 30.535 23.2083 30.8102ZM4.5135 22.6104C4.5135 22.3307 4.73992 22.1088 5.01517 22.1088H9.36589C9.64558 22.1088 9.86756 22.3352 9.86756 22.6104C9.86756 22.8857 9.64114 23.1121 9.36589 23.1121H5.01517C4.73548 23.1121 4.5135 22.8857 4.5135 22.6104ZM12.003 22.1088C12.2826 22.1088 12.5046 22.3352 12.5046 22.6104C12.5046 22.8857 12.2782 23.1121 12.003 23.1121H11.4436C11.1639 23.1121 10.9419 22.8857 10.9419 22.6104C10.9419 22.3352 11.1683 22.1088 11.4436 22.1088H12.003ZM4.76656 14.3707L10.4403 17.6471C10.5157 17.6915 10.6045 17.7137 10.6933 17.7137C10.7821 17.7137 10.8664 17.6915 10.9464 17.6471L16.6201 14.3707C16.7754 14.2819 16.8731 14.1132 16.8731 13.9356V7.38735C16.8731 7.20533 16.7754 7.04107 16.6201 6.95228L10.9464 3.67592C10.791 3.58713 10.6001 3.58713 10.4447 3.67592L4.771 6.95228C4.61561 7.04107 4.51794 7.20977 4.51794 7.38735V13.9356C4.51794 14.1132 4.61561 14.2819 4.771 14.3707H4.76656ZM5.52127 8.25749L6.52016 8.83463V11.3296C6.52016 11.5117 6.61783 11.6759 6.77322 11.7647L8.43359 12.7236C8.50906 12.768 8.59786 12.7902 8.68665 12.7902C8.77544 12.7902 8.85979 12.768 8.9397 12.7236C9.09508 12.6348 9.19275 12.4661 9.19275 12.2886V10.3751L10.1916 10.9523V16.3374L5.52571 13.6426V8.25749H5.52127ZM10.6889 10.0777L9.68997 9.50055L14.3559 6.80577L15.3548 7.38291L10.6889 10.0777ZM8.68221 8.91898L8.0296 8.54162L12.6955 5.84684L13.3481 6.2242L8.68221 8.91898ZM8.18054 9.78912V11.414L7.52793 11.0366V9.41176L8.18054 9.78912ZM11.195 16.333V10.9478L15.8609 8.25305V13.6382L11.195 16.333ZM10.6933 4.68812L11.6922 5.26526L7.02627 7.96004L6.02738 7.38291L10.6933 4.68812Z" fill="white"/>
</svg>
