<svg width="40" height="40" viewBox="0 0 40 40" fill="none" xmlns="http://www.w3.org/2000/svg">
<path d="M9.71016 40C9.52998 40 9.34196 39.9608 9.16962 39.8746C8.72308 39.6631 8.45673 39.2323 8.45673 38.7387L8.4724 36.2475C6.46692 36.0203 4.60244 35.1038 3.17667 33.631C1.58638 31.9859 0.708984 29.8316 0.708984 27.5519C0.708984 22.7262 4.63378 18.8014 9.45947 18.8014H19.7376C22.0643 18.8014 24.2577 19.7101 25.9185 21.3709C26.7724 22.2248 27.4227 23.2119 27.8692 24.3243C28.2844 25.3505 28.4881 26.4395 28.4881 27.5519C28.4881 32.3776 24.5633 36.3024 19.7376 36.3024H14.8335C14.7317 36.3024 14.6299 36.3415 14.5515 36.4042L10.5014 39.718C10.2742 39.906 9.99218 40 9.71016 40ZM9.45947 20.7677C5.71486 20.7677 2.66746 23.8151 2.66746 27.5597C2.66746 29.3223 3.34902 30.9988 4.58677 32.2757C5.8167 33.5527 7.46182 34.2891 9.21662 34.3517C9.90601 34.3752 10.4387 34.9393 10.4387 35.6208L10.4309 37.2581L13.3138 34.9079C13.7446 34.5554 14.2852 34.3674 14.8414 34.3674H19.7454C23.49 34.3674 26.5374 31.32 26.5374 27.5754C26.5374 26.7137 26.3729 25.8676 26.0596 25.0764C25.7149 24.2146 25.2057 23.4469 24.5476 22.781C23.2628 21.4963 21.555 20.7834 19.7532 20.7834H9.45947V20.7677Z" fill="white"/>
<path d="M20.231 29.1422C21.0379 29.1422 21.6881 28.492 21.6881 27.6851C21.6881 26.8782 21.0379 26.228 20.231 26.228C19.4241 26.228 18.7739 26.8782 18.7739 27.6851C18.7818 28.492 19.432 29.1422 20.231 29.1422Z" fill="white"/>
<path d="M14.5123 29.1422C15.3192 29.1422 15.9694 28.492 15.9694 27.6851C15.9694 26.8782 15.3192 26.228 14.5123 26.228C13.7054 26.228 13.0552 26.8782 13.0552 27.6851C13.0552 28.492 13.7054 29.1422 14.5123 29.1422Z" fill="white"/>
<path d="M8.78572 29.1422C9.58478 29.1422 10.2428 28.492 10.2428 27.6851C10.2428 26.8782 9.59262 26.228 8.78572 26.228C7.97883 26.228 7.32861 26.8782 7.32861 27.6851C7.33645 28.492 7.98666 29.1422 8.78572 29.1422Z" fill="white"/>
<path d="M30.282 21.1908C30 21.1908 29.718 21.0967 29.4908 20.9009L25.4485 17.595C25.3702 17.5323 25.2683 17.4931 25.1665 17.4931H20.2625C15.4368 17.4931 11.512 13.5684 11.512 8.74266C11.512 7.63024 11.7235 6.54132 12.1308 5.51508C12.5695 4.4105 13.2276 3.41559 14.0815 2.56169C15.7423 0.916569 17.9358 0 20.2625 0H30.5406C35.3662 0 39.291 3.92479 39.291 8.75049C39.291 11.0223 38.4136 13.1845 36.8234 14.8296C35.3976 16.3102 33.5331 17.219 31.5276 17.4461L31.5433 19.9373C31.5433 20.4309 31.2691 20.8617 30.8304 21.0732C30.6502 21.1516 30.4622 21.1908 30.282 21.1908ZM20.2625 1.95848C18.4607 1.95848 16.7529 2.66353 15.4681 3.95613C14.8022 4.62201 14.293 5.38974 13.9561 6.25147C13.635 7.05053 13.4783 7.88876 13.4783 8.75049C13.4783 12.4951 16.5257 15.5425 20.2703 15.5425H25.1743C25.7305 15.5425 26.2711 15.7383 26.6941 16.083L29.577 18.441L29.5691 16.8038C29.5691 16.1222 30.1019 15.566 30.7834 15.5347C32.5382 15.472 34.1833 14.7356 35.4211 13.4587C36.6588 12.1817 37.3326 10.5053 37.3326 8.74266C37.3326 4.99804 34.2852 1.95065 30.5406 1.95065H20.2625V1.95848Z" fill="white"/>
<path d="M21.6489 10.5443C21.4687 10.5443 21.2729 10.3328 21.2494 10.1135L20.936 4.91175C20.936 4.60623 21.0379 4.36337 21.2416 4.15186C21.4531 3.94034 21.7038 3.8385 22.0014 3.8385H22.1033C22.3618 3.8385 23.1295 3.99518 23.0434 4.99009L22.7378 10.1135C22.7143 10.2937 22.5498 10.5443 22.3226 10.5443H21.6489Z" fill="white"/>
<path d="M26.8428 10.466C26.6391 10.466 26.4667 10.2937 26.4746 10.09C26.4902 9.61997 26.5372 9.2361 26.6234 8.95408C26.7252 8.60939 27.0464 8.22553 27.587 7.779C27.8377 7.58315 28.0492 7.37947 28.2372 7.17578C28.4017 6.98777 28.48 6.75275 28.48 6.47856C28.48 5.85185 28.2215 5.50716 27.7123 5.42882C27.587 5.40532 27.4773 5.40532 27.3755 5.40532C27.0151 5.40532 26.7487 5.51499 26.5607 5.73434C26.4589 5.83618 26.3727 6.07903 26.3179 6.30622C26.2474 6.57257 26.0124 6.76842 25.7382 6.79976C25.4405 6.83109 25.0958 6.85459 24.9313 6.84676C24.5396 6.82326 24.3516 6.5334 24.3516 5.98503C24.3516 5.43665 24.6649 4.81777 25.0958 4.40258C25.4718 4.07355 26.0045 3.82287 26.5999 3.68969C26.8584 3.62702 27.1483 3.60352 27.4381 3.60352C27.7515 3.60352 28.0727 3.64269 28.4017 3.72102C28.9971 3.86203 29.5063 4.15189 29.9293 4.58276C30.368 5.02929 30.5795 5.6325 30.5795 6.39239C30.5795 7.00344 30.4542 7.47347 30.2035 7.8025C29.9607 8.11585 29.7021 8.39004 29.4044 8.61722C29.1616 8.81307 28.9031 9.02459 28.6524 9.25961C28.4409 9.45545 28.3469 9.73748 28.3625 10.09C28.3625 10.2937 28.198 10.4504 28.0022 10.4504L26.8428 10.466Z" fill="white"/>
<path d="M27.8141 11.0144C28.1823 11.0144 28.48 11.3121 28.48 11.6803V12.4089C28.48 12.7771 28.1823 13.0669 27.8219 13.0669H27.0856C26.7174 13.0669 26.4197 12.7692 26.4197 12.401V11.8135C26.4197 11.2729 26.6782 11.0066 27.2031 11.0066H27.8141V11.0144Z" fill="white"/>
<path d="M22.3695 11.0144C22.7377 11.0144 23.0354 11.3121 23.0354 11.6803V12.4089C23.0354 12.7771 22.7377 13.0669 22.3774 13.0669H21.641C21.2728 13.0669 20.9751 12.7692 20.9751 12.401V11.8135C20.9751 11.2729 21.2336 11.0066 21.7585 11.0066H22.3695V11.0144Z" fill="white"/>
</svg>
