<svg width="26" height="30" viewBox="0 0 26 30" fill="none" xmlns="http://www.w3.org/2000/svg">
<path fill-rule="evenodd" clip-rule="evenodd" d="M26 8.4375V26.25C26 28.3125 24.3286 30 22.2857 30H20.4286V28.125H22.2857C23.3071 28.125 24.1429 27.2813 24.1429 26.25V8.4375H20.4286C18.8871 8.4375 17.6429 7.18125 17.6429 5.625V1.875H7.42857C6.40714 1.875 5.57143 2.71875 5.57143 3.75V20.625H3.71429V3.75C3.71429 1.6875 5.38571 0 7.42857 0H17.6429L26 8.4375ZM2.97143 22.2188H0V29.7188H1.46714V27.2063H2.95286C3.49143 27.2063 3.93714 27.0938 4.30857 26.8875C4.68 26.6625 4.97714 26.3812 5.16286 26.0062C5.36714 25.6125 5.46 25.1812 5.46 24.7312C5.46 24.2625 5.36714 23.8313 5.16286 23.4563C4.97714 23.0813 4.68 22.7625 4.30857 22.5562C3.93714 22.3312 3.49143 22.2188 2.95286 22.2188H2.97143ZM3.97429 24.7125C3.97429 24.9563 3.91857 25.2 3.80714 25.425C3.71429 25.6125 3.54714 25.7813 3.36143 25.875C3.13857 25.9875 2.89714 26.0438 2.65571 26.025H1.43V23.3813H2.65571C3.06429 23.3813 3.38 23.4937 3.60286 23.7187C3.82571 23.9437 3.93714 24.2813 3.93714 24.6938L3.97429 24.7125ZM6.24 22.2188V29.7188H8.95143C9.69429 29.7188 10.3071 29.5687 10.8086 29.2687C11.31 28.9687 11.7 28.5188 11.9043 27.975C12.1457 27.4125 12.2757 26.7375 12.2757 25.95C12.2757 25.1625 12.1457 24.4875 11.9043 23.9438C11.6814 23.4188 11.31 22.9688 10.8086 22.6688C10.3257 22.3688 9.69429 22.2375 8.93286 22.2375H6.22143L6.24 22.2188ZM7.70714 23.4375H8.74714C9.21143 23.4375 9.58286 23.5312 9.88 23.7187C10.1957 23.925 10.4186 24.225 10.53 24.5625C10.6786 24.9375 10.7529 25.4063 10.7529 25.9688C10.7529 26.3438 10.7157 26.7187 10.6229 27.075C10.5486 27.3562 10.4371 27.6375 10.2514 27.8625C10.0843 28.0687 9.88 28.2375 9.63857 28.3312C9.36 28.4437 9.04429 28.5 8.74714 28.4812H7.70714V23.4V23.4375ZM14.6529 26.7375V29.7188H13.1857V22.2188H17.9214V23.4375H14.6529V25.5375H17.6429V26.7375H14.6529Z" fill="#003344"/>
</svg>
