<?xml version="1.0" encoding="utf-8"?>
<!-- Generator: Adobe Illustrator 27.9.5, SVG Export Plug-In . SVG Version: 9.03 Build 54986)  -->
<svg version="1.1" id="Warstwa_1" xmlns="http://www.w3.org/2000/svg" xmlns:xlink="http://www.w3.org/1999/xlink" x="0px" y="0px"
	 viewBox="0 0 30 30" style="enable-background:new 0 0 30 30;" xml:space="preserve">
<style type="text/css">
	.st0{fill-rule:evenodd;clip-rule:evenodd;fill:#FFFFFF;}
</style>
<path class="st0" d="M26.3,28.1c1,0,1.9-0.8,1.9-1.9V3.8c0-1-0.8-1.9-1.9-1.9H3.8c-1,0-1.9,0.8-1.9,1.9v22.5c0,1,0.8,1.9,1.9,1.9
	H26.3z M26.3,0C28.3,0,30,1.7,30,3.8v22.5c0,2.1-1.7,3.8-3.8,3.8H3.8C1.7,30,0,28.3,0,26.2L0,3.8C0,1.7,1.7,0,3.8,0L26.3,0z
	 M21.6,15.9c0.5,0,0.9-0.4,0.9-0.9s-0.4-0.9-0.9-0.9H10.7l4-4c0.4-0.4,0.4-1,0-1.3s-1-0.4-1.3,0l-5.6,5.6c-0.4,0.4-0.4,1,0,1.3
	l5.6,5.6c0.4,0.4,1,0.4,1.3,0s0.4-1,0-1.3l-4-4L21.6,15.9L21.6,15.9z"/>
</svg>
