<svg width="30" height="30" viewBox="0 0 30 30" fill="none" xmlns="http://www.w3.org/2000/svg">
<g clip-path="url(#clip0_887_557)">
<mask id="mask0_887_557" style="mask-type:luminance" maskUnits="userSpaceOnUse" x="0" y="0" width="30" height="30">
<path d="M30 0H0V30H30V0Z" fill="white"/>
</mask>
<g mask="url(#mask0_887_557)">
<mask id="mask1_887_557" style="mask-type:luminance" maskUnits="userSpaceOnUse" x="0" y="0" width="30" height="30">
<path d="M0 0V30H30V0H0Z" fill="white"/>
</mask>
<g mask="url(#mask1_887_557)">
<path fill-rule="evenodd" clip-rule="evenodd" d="M3.75 1.875C2.71875 1.875 1.875 2.71875 1.875 3.75V26.25C1.875 27.2813 2.71875 28.125 3.75 28.125H26.25C27.2813 28.125 28.125 27.2812 28.125 26.25V3.75C28.125 2.71875 27.2813 1.875 26.25 1.875H3.75ZM3.75 30C1.6875 30 1.07366e-06 28.3125 9.83502e-07 26.25L0 3.75C-9.016e-08 1.6875 1.6875 1.07366e-06 3.75 9.83505e-07L26.25 0C28.3125 -9.0155e-08 30 1.6875 30 3.75V26.25C30 28.3125 28.3125 30 26.25 30H3.75ZM8.4375 14.0625C7.9125 14.0625 7.5 14.475 7.5 15C7.5 15.525 7.9125 15.9375 8.4375 15.9375H19.2938L15.2625 19.9688C14.8875 20.3438 14.8875 20.925 15.2625 21.3C15.6375 21.675 16.2188 21.675 16.5938 21.3L22.2188 15.675C22.5938 15.3 22.5938 14.7187 22.2188 14.3437L16.5938 8.71875C16.2188 8.34375 15.6375 8.34375 15.2625 8.71875C14.8875 9.09375 14.8875 9.675 15.2625 10.05L19.2938 14.0813H8.4375V14.0625Z" fill="#FFD800"/>
</g>
</g>
</g>
<defs>
<clipPath id="clip0_887_557">
<rect width="30" height="30" fill="white"/>
</clipPath>
</defs>
</svg>
