<svg width="47" height="40" viewBox="0 0 47 40" fill="none" xmlns="http://www.w3.org/2000/svg">
<g clip-path="url(#clip0_997_1121)">
<path d="M38.9128 10.3746C37.6958 10.3746 36.7137 11.3703 36.709 12.5984V15.5619C36.709 15.9697 37.0379 16.3016 37.442 16.3016H40.3789C40.7831 16.3016 41.112 15.9697 41.112 15.5619V12.5984C41.112 11.3703 40.1252 10.3793 38.9081 10.3746H38.9128ZM39.6459 14.8175H38.1798V12.5936C38.1798 12.1859 38.5087 11.854 38.9128 11.854C39.317 11.854 39.6459 12.1859 39.6459 12.5936V14.8175Z" fill="white"/>
<path d="M38.9128 17.7809C37.6958 17.7809 36.7137 18.7767 36.709 20.0047V22.9682C36.709 23.376 37.0379 23.7079 37.442 23.7079H40.3789C40.7831 23.7079 41.112 23.376 41.112 22.9682V20.0047C41.112 18.7767 40.1252 17.7857 38.9081 17.7809H38.9128ZM39.6459 22.2238H38.1798V20C38.1798 19.5922 38.5087 19.2603 38.9128 19.2603C39.317 19.2603 39.6459 19.5922 39.6459 20V22.2238Z" fill="white"/>
<path d="M28.6362 24.4476H31.5731C31.9772 24.4476 32.3062 24.1157 32.3062 23.7079V20.7444C32.3062 19.5164 31.3194 18.5206 30.1023 18.5206C28.8852 18.5206 27.8984 19.5164 27.8984 20.7444V23.7079C27.8984 24.1157 28.2274 24.4476 28.6315 24.4476H28.6362ZM29.3692 20.7444C29.3692 20.3367 29.6982 20.0047 30.1023 20.0047C30.5064 20.0047 30.8354 20.3367 30.8354 20.7444V22.9682H29.3692V20.7444Z" fill="white"/>
<path d="M16.8884 18.5206C15.6714 18.5206 14.6893 19.5164 14.6846 20.7444V23.7079C14.6846 24.1157 15.0135 24.4476 15.4176 24.4476H18.3545C18.7587 24.4476 19.0876 24.1157 19.0876 23.7079V20.7444C19.0876 19.5164 18.1008 18.5254 16.8837 18.5206H16.8884ZM17.6215 22.9682H16.1554V20.7444C16.1554 20.3367 16.4843 20.0047 16.8884 20.0047C17.2925 20.0047 17.6215 20.3367 17.6215 20.7444V22.9682Z" fill="white"/>
<path d="M28.6359 27.4111H31.5728C31.9769 27.4111 32.3059 27.0792 32.3059 26.6714C32.3059 26.2636 31.9769 25.9317 31.5728 25.9317H28.6359C28.2318 25.9317 27.9028 26.2636 27.9028 26.6714C27.9028 27.0792 28.2318 27.4111 28.6359 27.4111Z" fill="white"/>
<path d="M18.3545 25.9317H15.4176C15.0135 25.9317 14.6846 26.2636 14.6846 26.6714C14.6846 27.0792 15.0135 27.4111 15.4176 27.4111H18.3545C18.7587 27.4111 19.0876 27.0792 19.0876 26.6714C19.0876 26.2636 18.7587 25.9317 18.3545 25.9317Z" fill="white"/>
<path d="M38.9128 25.192C37.6958 25.192 36.7137 26.1878 36.709 27.4158V30.3793C36.709 30.7871 37.0379 31.119 37.442 31.119H40.3789C40.7831 31.119 41.112 30.7871 41.112 30.3793V27.4158C41.112 26.1878 40.1252 25.1968 38.9081 25.192H38.9128ZM39.6459 29.6349H38.1798V27.4111C38.1798 27.0033 38.5087 26.6714 38.9128 26.6714C39.317 26.6714 39.6459 27.0033 39.6459 27.4111V29.6349Z" fill="white"/>
<path d="M6.60689 16.3016H9.54381C9.94792 16.3016 10.2769 15.9697 10.2769 15.5619V12.5984C10.2769 11.3703 9.29006 10.3746 8.073 10.3746C6.85594 10.3746 5.86914 11.3703 5.86914 12.5984V15.5619C5.86914 15.9697 6.19808 16.3016 6.60219 16.3016H6.60689ZM7.33995 12.5936C7.33995 12.1859 7.66888 11.854 8.073 11.854C8.47712 11.854 8.80605 12.1859 8.80605 12.5936V14.8175H7.33995V12.5936Z" fill="white"/>
<path d="M6.60689 23.7079H9.54381C9.94792 23.7079 10.2769 23.376 10.2769 22.9682V20.0047C10.2769 18.7767 9.29006 17.7809 8.073 17.7809C6.85594 17.7809 5.86914 18.7767 5.86914 20.0047V22.9682C5.86914 23.376 6.19808 23.7079 6.60219 23.7079H6.60689ZM7.33995 20.0047C7.33995 19.597 7.66888 19.2651 8.073 19.2651C8.47712 19.2651 8.80605 19.597 8.80605 20.0047V22.2286H7.33995V20.0047Z" fill="white"/>
<path d="M6.60689 31.119H9.54381C9.94792 31.119 10.2769 30.7871 10.2769 30.3793V27.4158C10.2769 26.1878 9.29006 25.192 8.073 25.192C6.85594 25.192 5.86914 26.1878 5.86914 27.4158V30.3793C5.86914 30.7871 6.19808 31.119 6.60219 31.119H6.60689ZM7.33995 27.4111C7.33995 27.0033 7.66888 26.6714 8.073 26.6714C8.47712 26.6714 8.80605 27.0033 8.80605 27.4111V29.6349H7.33995V27.4111Z" fill="white"/>
<path d="M46.2576 0H43.3206C42.9165 0 42.5876 0.331911 42.5876 0.739687V2.97297C42.1976 2.97297 41.6666 2.97297 41.1215 2.96823V0.739687C41.1168 0.331911 40.7878 0 40.3837 0H37.4468C37.0427 0 36.7138 0.331911 36.7138 0.739687V2.97297C36.3237 2.97297 35.7927 2.97297 35.2477 2.96823V0.739687C35.243 0.331911 34.914 0 34.5099 0H31.573C31.1689 0 30.8399 0.331911 30.8399 0.739687V5.55714C30.8399 5.77051 30.9339 5.9744 31.0937 6.11664L33.7768 8.48743V9.6349H31.3662C30.9621 9.6349 30.6332 9.96681 30.6332 10.3746V12.6079C30.1915 12.6174 29.5806 12.6079 28.9556 12.6031V10.3746C28.9556 9.96681 28.6267 9.6349 28.2179 9.6349H25.0695C24.6654 9.6349 24.3364 9.96681 24.3364 10.3746V12.6079C23.8947 12.6174 23.2885 12.6079 22.6589 12.6031V10.3746C22.6589 9.96681 22.3299 9.6349 21.9258 9.6349H18.7774C18.3733 9.6349 18.0444 9.96681 18.0444 10.3746V12.6079C17.6027 12.6126 16.9965 12.6079 16.3668 12.6031V10.3746C16.3668 9.96681 16.0379 9.6349 15.6291 9.6349H13.2185V8.48743L15.9016 6.11664C16.0614 5.9744 16.1554 5.77051 16.1554 5.55714V0.739687C16.1554 0.331911 15.8264 0 15.4176 0H12.4807C12.0766 0 11.7477 0.331911 11.7477 0.739687V2.97297C11.3576 2.97297 10.8266 2.97297 10.2815 2.96823V0.739687C10.2815 0.331911 9.95261 0 9.54379 0H6.60688C6.20276 0 5.87383 0.331911 5.87383 0.739687V2.97297C5.4838 2.97297 4.95281 2.97297 4.40772 2.96823V0.739687C4.40772 0.331911 4.07878 0 3.66997 0H0.733053C0.328934 0 0 0.331911 0 0.739687V5.55714C0 5.77051 0.0939812 5.9744 0.253749 6.1119L2.93691 8.48269V32.5936H2.57039C1.75745 32.5936 1.10428 33.2575 1.10428 34.073V35.6046C0.455809 35.7752 0.00469906 36.3585 0.00469906 37.0365V39.2603C0.00469906 39.6681 0.333633 40 0.737752 40H46.2622C46.6664 40 46.9953 39.6681 46.9953 39.2603V37.0365C46.9953 36.3632 46.5395 35.7752 45.8957 35.6046V34.073C45.8957 33.2527 45.2379 32.5936 44.4296 32.5936H44.0631V8.48269L46.7463 6.1119C46.906 5.96965 47 5.76577 47 5.55239V0.739687C47 0.331911 46.6711 0 46.2669 0H46.2576ZM14.896 11.1143V13.3381C14.896 13.7459 15.225 14.073 15.6244 14.0778C16.4843 14.0872 17.1281 14.0872 17.6121 14.0872C19.05 14.0872 19.097 14.0446 19.2755 13.8786C19.4259 13.7411 19.5105 13.542 19.5105 13.3381V11.1143H21.1881V13.3381C21.1881 13.7459 21.5123 14.073 21.9164 14.0778C24.1939 14.0936 25.411 14.0272 25.5676 13.8786C25.718 13.7411 25.8025 13.542 25.8025 13.3381V11.1143H27.4801V13.3381C27.4801 13.7459 27.809 14.073 28.2085 14.0778C30.4859 14.0936 31.703 14.0272 31.8596 13.8786C32.01 13.7411 32.0946 13.542 32.0946 13.3381V11.1143H33.7721V15.5619H13.2185V11.1143H14.896ZM23.4953 22.9682C21.5687 22.9682 20.0086 24.5424 20.0086 26.4865V32.5984H13.2185V17.0413H33.7768V32.5984H26.9867V26.4865C26.9867 24.5424 25.4266 22.9682 23.5 22.9682H23.4953ZM26.7987 34.0825V35.5619H20.1919V34.0825H26.7987ZM21.4747 32.5984V26.4865C21.4747 25.358 22.3769 24.4476 23.4953 24.4476C24.6137 24.4476 25.5159 25.358 25.5159 26.4865V32.5984H21.4794H21.4747ZM1.47081 5.22048V1.48412H2.93691V3.70792C2.93691 4.11569 3.26115 4.44286 3.66527 4.44761C5.8143 4.46341 6.96871 4.39071 7.12847 4.22949C7.26475 4.09199 7.34463 3.90232 7.34463 3.70318V1.48412H8.81544V3.70792C8.81544 4.11569 9.13967 4.44286 9.54379 4.44761C11.6928 4.46341 12.8472 4.39071 13.007 4.22949C13.1433 4.09199 13.2232 3.90232 13.2232 3.70318V1.48412H14.6893V5.22523L12.2129 7.4111H3.94721L1.47081 5.22523V5.22048ZM11.7477 8.89047V32.5984H4.40772V8.89047H11.7477ZM2.57039 34.0825H18.7211V35.5619H2.57039V34.0825ZM16.5219 38.5254H1.47081V37.046H16.5219V38.5254ZM29.0026 38.5254H17.988V37.046H29.0026V38.5254ZM45.5245 37.046V38.5254H30.4734V37.046H45.5245ZM44.4202 34.0825V35.5619H28.2648V34.0825H44.4202ZM35.243 32.5984V8.89047H42.5829V32.5984H35.243ZM45.5245 5.22048L43.0481 7.40635H34.7871L32.3107 5.22048V1.48412H33.7768V3.70792C33.7768 4.11569 34.1011 4.44286 34.5052 4.44761C36.6542 4.46341 37.8086 4.39071 37.9684 4.22949C38.1047 4.09199 38.1846 3.90232 38.1846 3.70318V1.48412H39.6507V3.70792C39.6507 4.11569 39.9749 4.44286 40.379 4.44761C42.5281 4.46341 43.6825 4.39071 43.8422 4.22949C43.9785 4.09199 44.0584 3.90232 44.0584 3.70318V1.48412H45.5245V5.22523V5.22048Z" fill="white"/>
</g>
<defs>
<clipPath id="clip0_997_1121">
<rect width="47" height="40" fill="white"/>
</clipPath>
</defs>
</svg>
