<svg width="20" height="27" viewBox="0 0 20 27" fill="none" xmlns="http://www.w3.org/2000/svg">
<path d="M16.95 15.0862C16.0833 16.875 14.9 18.6637 13.6833 20.2669C12.5333 21.7856 11.3 23.22 10 24.6038C8.7 23.22 7.46667 21.7856 6.31667 20.2669C5.1 18.6637 3.91667 16.875 3.05 15.0862C2.16667 13.2806 1.66667 11.5763 1.66667 10.125C1.66667 5.4675 5.4 1.6875 10 1.6875C14.6 1.6875 18.3333 5.4675 18.3333 10.125C18.3333 11.5763 17.8167 13.2806 16.95 15.0862ZM10 27C10 27 20 17.3981 20 10.125C20 4.53938 15.5167 0 10 0C4.48333 0 0 4.53938 0 10.125C0 17.3981 10 27 10 27Z" fill="#247A24"/>
<path d="M10 13.5C8.16667 13.5 6.66667 11.9812 6.66667 10.125C6.66667 8.26875 8.16667 6.75 10 6.75C11.8333 6.75 13.3333 8.26875 13.3333 10.125C13.3333 11.9812 11.8333 13.5 10 13.5ZM10 15.1875C12.7667 15.1875 15 12.9262 15 10.125C15 7.32375 12.7667 5.0625 10 5.0625C7.23333 5.0625 5 7.32375 5 10.125C5 12.9262 7.23333 15.1875 10 15.1875Z" fill="#247A24"/>
</svg>
