<svg width="23" height="23" viewBox="0 0 23 23" fill="none" xmlns="http://www.w3.org/2000/svg">
<g clip-path="url(#clip0_202_2079)">
<path d="M16.8762 14.8637C19.9237 10.695 19.0181 4.85872 14.8637 1.79684C10.7093 -1.23628 4.85872 -0.345034 1.81122 3.82372C-1.23628 7.97809 -0.345027 13.8287 3.82372 16.8762C7.1156 19.2912 11.5862 19.2912 14.8781 16.8762C14.8781 16.8762 14.9643 16.9912 15.0218 17.0343L20.5562 22.5687C21.1168 23.1293 22.0225 23.1293 22.5831 22.5687C23.1437 22.0081 23.1437 21.1025 22.5831 20.5418L17.0487 15.0075C17.0487 15.0075 16.9481 14.9068 16.8906 14.8637H16.8762ZM17.25 9.34372C17.25 13.7137 13.7137 17.25 9.34372 17.25C4.97372 17.25 1.43747 13.7137 1.43747 9.34372C1.43747 4.97372 4.97372 1.43747 9.34372 1.43747C13.7137 1.43747 17.25 4.97372 17.25 9.34372Z" fill="black"/>
</g>
<defs>
<clipPath id="clip0_202_2079">
<rect width="23" height="23" fill="white"/>
</clipPath>
</defs>
</svg>
