<svg width="12" height="23" viewBox="0 0 12 23" fill="none" xmlns="http://www.w3.org/2000/svg">
<g clip-path="url(#clip0_202_2097)">
<path d="M6 1.5C3.51 1.5 1.5 3.51 1.5 6V12C1.5 14.49 3.51 16.5 6 16.5C8.49 16.5 10.5 14.49 10.5 12V6C10.5 3.51 8.49 1.5 6 1.5ZM6 0C9.31 0 12 2.69 12 6V12C12 15.31 9.31 18 6 18C2.69 18 0 15.31 0 12V6C0 2.69 2.69 0 6 0Z" fill="white"/>
<path d="M5.25 4.5C5.25 4.09 5.59 3.75 6 3.75C6.41 3.75 6.75 4.09 6.75 4.5V8.5C6.75 8.91 6.41 9.25 6 9.25C5.59 9.25 5.25 8.91 5.25 8.5V4.5Z" fill="white"/>
<path d="M6.37 22.1501C6.01 22.3601 5.55 22.2301 5.35 21.8701C5.14 21.5101 5.27 21.0501 5.63 20.8501L9.13 18.8501C9.49 18.6401 9.95 18.7701 10.15 19.1301C10.35 19.4901 10.23 19.9501 9.87 20.1501L6.37 22.1501Z" fill="white"/>
<path d="M6.37 20.85C6.73 21.06 6.85 21.51 6.65 21.87C6.44 22.23 5.99 22.35 5.63 22.15L2.13 20.15C1.77 19.94 1.65 19.49 1.85 19.13C2.05 18.77 2.51 18.65 2.87 18.85L6.37 20.85Z" fill="white"/>
</g>
<defs>
<clipPath id="clip0_202_2097">
<rect width="12" height="22.25" fill="white"/>
</clipPath>
</defs>
</svg>
