<svg width="30" height="30" viewBox="0 0 30 30" fill="none" xmlns="http://www.w3.org/2000/svg">
<g clip-path="url(#clip0_987_1114)">
<path fill-rule="evenodd" clip-rule="evenodd" d="M15 28.4375C22.4213 28.4375 28.4375 22.4213 28.4375 15C28.4375 7.57867 22.4213 1.5625 15 1.5625C7.57867 1.5625 1.5625 7.57867 1.5625 15C1.5625 22.4213 7.57867 28.4375 15 28.4375ZM15 3.4375C14.0798 3.4375 13.0452 4.28122 12.2045 6.49411C11.7981 7.56392 11.4793 8.85818 11.2631 10.3125H18.7369C18.5207 8.85818 18.2019 7.56392 17.7955 6.49411C16.9548 4.28122 15.9202 3.4375 15 3.4375ZM10.4517 5.82822C9.96425 7.11138 9.60132 8.6351 9.36889 10.3125H4.42713C5.73369 7.36986 8.23269 5.0741 11.3108 4.03853C10.9781 4.58618 10.6928 5.19376 10.4517 5.82822ZM9.16829 12.1875H3.78195C3.55695 13.0878 3.4375 14.03 3.4375 15C3.4375 15.97 3.55695 16.9122 3.78195 17.8125H9.16829C9.09803 16.9031 9.0625 15.9618 9.0625 15C9.0625 14.0382 9.09803 13.0969 9.16829 12.1875ZM9.36889 19.6875H4.42713C5.73369 22.6301 8.23269 24.9259 11.3108 25.9615C10.9781 25.4138 10.6928 24.8062 10.4517 24.1718C9.96425 22.8886 9.60132 21.3649 9.36889 19.6875ZM11.2631 19.6875H18.7369C18.5207 21.1418 18.2019 22.4361 17.7955 23.5059C16.9548 25.7188 15.9202 26.5625 15 26.5625C14.0798 26.5625 13.0452 25.7188 12.2045 23.5059C11.7981 22.4361 11.4793 21.1418 11.2631 19.6875ZM18.9508 17.8125H11.0492C10.9757 16.9144 10.9375 15.9729 10.9375 15C10.9375 14.0271 10.9757 13.0856 11.0492 12.1875H18.9508C19.0243 13.0856 19.0625 14.0271 19.0625 15C19.0625 15.9729 19.0243 16.9144 18.9508 17.8125ZM20.6311 19.6875C20.3987 21.3649 20.0357 22.8886 19.5483 24.1718C19.3072 24.8062 19.0219 25.4138 18.6892 25.9615C21.7673 24.9259 24.2663 22.6301 25.5729 19.6875H20.6311ZM26.218 17.8125H20.8317C20.902 16.9031 20.9375 15.9618 20.9375 15C20.9375 14.0382 20.902 13.0969 20.8317 12.1875H26.218C26.443 13.0878 26.5625 14.03 26.5625 15C26.5625 15.97 26.443 16.9122 26.218 17.8125ZM18.6892 4.03853C21.7673 5.0741 24.2663 7.36986 25.5729 10.3125H20.6311C20.3987 8.6351 20.0357 7.11138 19.5483 5.82822C19.3072 5.19376 19.0219 4.58618 18.6892 4.03853Z" fill="white"/>
</g>
<defs>
<clipPath id="clip0_987_1114">
<rect width="30" height="30" fill="white"/>
</clipPath>
</defs>
</svg>
