<svg width="99" height="74" viewBox="0 0 99 74" fill="none" xmlns="http://www.w3.org/2000/svg">
<g clip-path="url(#clip0_891_1859)">
<path d="M42.0131 19.055C40.6519 18.0683 38.6719 18.3767 37.6819 19.795C37.3106 20.2883 37.125 20.9667 37.125 21.5833V52.4167C37.125 54.1433 38.4862 55.5 40.2188 55.5C40.8375 55.5 41.5181 55.315 42.0131 54.945L63.6694 39.5283C65.0306 38.5417 65.4019 36.63 64.4119 35.2117C64.2262 34.9033 63.9787 34.7183 63.6694 34.4717L42.0131 19.055Z" fill="#FFD800"/>
<path d="M0 12.3333C0 5.55 5.56875 0 12.375 0H86.625C93.4313 0 99 5.55 99 12.3333V61.6667C99 68.45 93.4313 74 86.625 74H12.375C5.56875 74 0 68.45 0 61.6667V12.3333ZM92.8125 12.3333C92.8125 8.94167 90.0281 6.16667 86.625 6.16667H12.375C8.97187 6.16667 6.1875 8.94167 6.1875 12.3333V61.6667C6.1875 65.0583 8.97187 67.8333 12.375 67.8333H86.625C90.0281 67.8333 92.8125 65.0583 92.8125 61.6667V12.3333Z" fill="#FFD800"/>
</g>
<defs>
<clipPath id="clip0_891_1859">
<rect width="99" height="74" fill="white"/>
</clipPath>
</defs>
</svg>
