<svg width="22" height="22" viewBox="0 0 22 22" fill="none" xmlns="http://www.w3.org/2000/svg">
<g clip-path="url(#clip0_71_3002)">
<path d="M11 20.625C5.67875 20.625 1.375 16.3212 1.375 11C1.375 5.67875 5.67875 1.375 11 1.375C16.3212 1.375 20.625 5.67875 20.625 11C20.625 16.3212 16.3212 20.625 11 20.625ZM11 22C17.0775 22 22 17.0775 22 11C22 4.9225 17.0775 0 11 0C4.9225 0 0 4.9225 0 11C0 17.0775 4.9225 22 11 22Z" fill="#247A24"/>
<path d="M12.279 9.06125L9.13026 9.46L9.02026 9.9825L9.63901 10.0925C10.0378 10.1888 10.1203 10.34 10.0378 10.7387L9.02026 15.51C8.75901 16.7475 9.17151 17.325 10.134 17.325C10.8903 17.325 11.7565 16.9812 12.1415 16.5L12.2653 15.9225C11.9903 16.17 11.5915 16.2662 11.3165 16.2662C10.9315 16.2662 10.794 16.005 10.904 15.5375L12.279 9.06125ZM12.3753 6.1875C12.3753 6.94375 11.7565 7.5625 11.0003 7.5625C10.244 7.5625 9.62526 6.94375 9.62526 6.1875C9.62526 5.43125 10.244 4.8125 11.0003 4.8125C11.7565 4.8125 12.3753 5.43125 12.3753 6.1875Z" fill="#247A24"/>
</g>
<defs>
<clipPath id="clip0_71_3002">
<rect width="22" height="22" fill="white"/>
</clipPath>
</defs>
</svg>
