<svg width="26" height="30" viewBox="0 0 26 30" fill="none" xmlns="http://www.w3.org/2000/svg">
<path fill-rule="evenodd" clip-rule="evenodd" d="M26.0001 8.4375V26.25C26.0001 28.3125 24.3286 30 22.2858 30H21.7658V28.125H22.2858C23.3072 28.125 24.1429 27.2813 24.1429 26.25V8.4375H20.4286C18.8872 8.4375 17.6429 7.18125 17.6429 5.625V1.875H7.42864C6.40721 1.875 5.5715 2.71875 5.5715 3.75V20.625H3.71436V3.75C3.71436 1.6875 5.38578 0 7.42864 0H17.6429L26.0001 8.4375Z" fill="#003344"/>
<path d="M0 22.5188H2.58143C3.15714 22.5188 3.60286 22.5563 3.91857 22.65C4.32714 22.7813 4.68 22.9875 4.97714 23.3063C5.27429 23.625 5.49714 24 5.64571 24.45C5.79429 24.9 5.86857 25.4625 5.86857 26.1188C5.86857 26.7 5.79429 27.2063 5.64571 27.6188C5.47857 28.125 5.21857 28.5563 4.90286 28.875C4.66143 29.1188 4.32714 29.3063 3.91857 29.4375C3.60286 29.5313 3.19429 29.5875 2.67429 29.5875H0V22.5188ZM1.41143 23.7188V28.4063H2.47C2.86 28.4063 3.15714 28.3875 3.32429 28.3313C3.54714 28.275 3.75143 28.1813 3.9 28.0313C4.04857 27.8813 4.17857 27.6563 4.27143 27.3563C4.36429 27.0375 4.42 26.6063 4.42 26.0625C4.42 25.5188 4.36429 25.0875 4.27143 24.8063C4.17857 24.5063 4.04857 24.2813 3.86286 24.1125C3.69571 23.9438 3.47286 23.8313 3.21286 23.775C3.00857 23.7375 2.63714 23.7 2.04286 23.7H1.41143V23.7188Z" fill="#003344"/>
<path d="M6.77835 26.1C6.77835 25.3875 6.88978 24.7687 7.09407 24.2812C7.26121 23.925 7.4655 23.6062 7.74407 23.3062C8.02264 23.025 8.31978 22.8 8.65407 22.6687C9.08121 22.4812 9.60121 22.3875 10.1584 22.3875C11.1984 22.3875 12.0155 22.7062 12.6284 23.3625C13.2412 24.0187 13.5569 24.9 13.5569 26.0625C13.5569 27.225 13.2412 28.1062 12.6284 28.7437C12.0155 29.3812 11.1984 29.7187 10.1584 29.7187C9.11835 29.7187 8.28264 29.4 7.66978 28.7625C7.05693 28.125 6.74121 27.2437 6.74121 26.1187L6.77835 26.1ZM8.22692 26.0437C8.22692 26.85 8.41264 27.45 8.78407 27.8625C9.1555 28.275 9.61978 28.4812 10.1769 28.4812C10.7341 28.4812 11.1984 28.275 11.5698 27.8625C11.9412 27.45 12.1084 26.8312 12.1084 26.025C12.1084 25.2187 11.9412 24.6187 11.5884 24.2062C11.2355 23.8125 10.7712 23.6062 10.1769 23.6062C9.58264 23.6062 9.11835 23.8125 8.7655 24.2062C8.41264 24.6187 8.22692 25.2187 8.22692 26.025V26.0437Z" fill="#003344"/>
<path d="M19.1654 27L20.5397 27.4313C20.3354 28.2 19.9825 28.7813 19.4997 29.1563C19.0168 29.5313 18.3854 29.7188 17.6425 29.7188C16.714 29.7188 15.9525 29.4 15.3397 28.7625C14.7268 28.125 14.4482 27.2438 14.4482 26.1375C14.4482 24.9563 14.7454 24.0375 15.3582 23.4C15.9711 22.7625 16.7511 22.425 17.7354 22.425C18.5897 22.425 19.2954 22.6875 19.8154 23.1938C20.1311 23.4938 20.3725 23.925 20.5397 24.4875L19.1468 24.825C19.054 24.45 18.8868 24.1688 18.6268 23.9625C18.3668 23.7563 18.0511 23.6438 17.6611 23.6438C17.1411 23.6438 16.714 23.8313 16.3982 24.2063C16.0825 24.5813 15.9154 25.2 15.9154 26.025C15.9154 26.925 16.0825 27.5625 16.3982 27.9375C16.714 28.3125 17.1225 28.5 17.6425 28.5C18.014 28.5 18.3482 28.3875 18.6082 28.1438C18.8682 27.9 19.0725 27.525 19.184 27H19.1654Z" fill="#003344"/>
</svg>
