<svg width="22" height="22" viewBox="0 0 22 22" fill="none" xmlns="http://www.w3.org/2000/svg">
<path d="M5.01809 1.82943C4.70172 1.41677 4.11026 1.348 3.71136 1.66437C3.68385 1.69188 3.65634 1.71939 3.62883 1.7469L2.21205 3.16367C1.55181 3.82391 1.30422 4.77302 1.59308 5.59832C2.80352 9.02334 4.75674 12.132 7.32895 14.6904C9.88739 17.2626 12.996 19.2159 16.4211 20.4263C17.2464 20.7152 18.1955 20.4676 18.8557 19.8073L20.2725 18.3905C20.6301 18.0329 20.6439 17.4414 20.2725 17.0701C20.245 17.0426 20.2175 17.015 20.19 16.9875L17.0125 14.5254C16.7924 14.3466 16.4898 14.2915 16.2147 14.3603L13.2024 15.1168C12.3908 15.3232 11.5242 15.0756 10.919 14.4841L7.53527 11.1004C6.9438 10.5089 6.69621 9.64231 6.90254 8.81701L7.65907 5.80465C7.72784 5.52954 7.65907 5.22693 7.49401 5.00685L5.03185 1.82943H5.01809ZM2.58344 0.701509C3.51879 -0.233836 5.0456 -0.233836 5.98095 0.701509C6.04972 0.770285 6.1185 0.852815 6.17352 0.921591L8.63568 4.09902C9.0896 4.67673 9.25466 5.43326 9.07584 6.14852L8.31931 9.16089C8.23678 9.47725 8.33307 9.80738 8.5669 10.0412L11.9507 13.425C12.1845 13.6588 12.5146 13.7551 12.831 13.6726L15.8433 12.916C16.5586 12.7372 17.3151 12.9023 17.8929 13.3424L21.0703 15.8046C22.2119 16.6987 22.322 18.3768 21.2904 19.3947L19.8736 20.8114C18.8557 21.8293 17.3289 22.2832 15.9121 21.7743C12.2808 20.4951 8.99331 18.4181 6.2698 15.6946C3.56005 13.0123 1.48303 9.71109 0.203811 6.07975C-0.291372 4.66297 0.148791 3.13616 1.16667 2.11828L2.5972 0.701509H2.58344Z" fill="#247A24"/>
</svg>
