<svg width="77" height="90" viewBox="0 0 77 90" fill="none" xmlns="http://www.w3.org/2000/svg">
<g clip-path="url(#clip0_880_573)">
<path d="M70.4734 0H6.13377C2.74617 0 0 2.76794 0 6.18239V51.7128C0.134407 72.824 17.2918 90 38.3036 90C59.3154 90 76.4727 72.8222 76.6071 51.7128V6.18239C76.6071 2.76794 73.861 0 70.4734 0ZM66.2534 75.5488C65.5518 76.365 64.7993 77.162 64.0038 77.9316C63.0305 74.5433 61.9718 71.0934 59.7321 68.5546C57.3053 65.7968 53.817 64.2826 50.4434 62.8185C48.9732 62.1803 47.453 61.5205 46.0901 60.7798C45.3763 60.3918 44.7573 60.0113 44.198 59.6166C43.6008 59.1951 43.0856 58.7678 42.6244 58.3114C42.1931 57.815 41.8039 57.2577 41.4356 56.6094C41.0888 55.9989 40.7688 55.3212 40.457 54.5373C39.8587 53.0331 39.4016 51.4211 38.9177 49.7145C37.9273 46.2209 36.9029 42.6083 34.5574 39.9461C32.1325 37.1906 28.6276 35.6576 25.238 34.175C23.7593 33.5282 22.2301 32.8593 20.861 32.1117C20.1438 31.7201 19.5225 31.3368 18.9617 30.9399C18.3677 30.5195 17.8554 30.0943 17.3975 29.6413C16.9601 29.1408 16.5665 28.5793 16.195 27.9254C15.8485 27.3159 15.5293 26.6393 15.2189 25.8574C14.6231 24.3564 14.17 22.7484 13.6902 21.0461C12.7093 17.5657 11.6952 13.9671 9.35172 11.3027C7.31346 8.98632 4.51594 7.52441 1.5354 6.18448C1.5523 5.59486 1.67299 5.02228 1.89493 4.47974C2.13441 3.89414 2.48119 3.36736 2.92554 2.91402C3.3699 2.46068 3.88823 2.10472 4.46604 1.85611C5.06394 1.59883 5.70041 1.4685 6.35794 1.4685H6.99203C7.23294 1.4685 7.46987 1.51864 7.69579 1.61747C9.09088 2.2275 10.5607 2.89747 11.8578 3.66177C13.2162 4.46223 14.268 5.29611 15.0732 6.21067C15.5405 6.74179 15.9606 7.33687 16.3573 8.02998C16.7211 8.66572 17.0571 9.36992 17.3842 10.1832C18.011 11.7412 18.4901 13.4069 18.9973 15.1703C19.9482 18.476 20.9313 21.8943 22.978 24.5788L23.0405 24.6608L23.1138 24.7331C25.5223 27.1096 28.7819 28.5146 31.9343 29.8733C33.6156 30.5979 35.2036 31.2824 36.6669 32.1008C37.4308 32.528 38.0859 32.9504 38.6698 33.3924C39.3063 33.8742 39.8431 34.367 40.3109 34.8991L40.3122 34.9004C40.78 35.4312 41.2004 36.026 41.5976 36.7191C41.9619 37.3548 42.2982 38.0592 42.6258 38.8727C43.2535 40.4313 43.7334 42.098 44.2416 43.8625C45.1921 47.1635 46.1751 50.5768 48.2154 53.2589L48.2787 53.3422L48.3532 53.4154C50.764 55.7905 54.0032 57.167 57.1358 58.4983C58.8042 59.2073 60.3801 59.877 61.8339 60.6837C62.5923 61.1047 63.2436 61.5224 63.8248 61.9609C64.4586 62.439 64.9941 62.93 65.4624 63.4619C65.9193 63.9816 66.3318 64.5632 66.7237 65.2398C67.0844 65.8625 67.4184 66.5513 67.7451 67.345C68.2806 68.6467 68.7086 70.0081 69.18 71.6C68.3069 72.9768 67.3244 74.3029 66.2534 75.5488ZM52.5684 85.6344C50.3533 86.5758 48.0375 87.2988 45.6851 87.7833C43.2704 88.2806 40.7868 88.533 38.3036 88.533C35.8203 88.533 33.3367 88.2808 30.922 87.7834C28.5697 87.2989 26.2538 86.5759 24.0387 85.6347C21.8638 84.7105 19.764 83.5664 17.7978 82.2345C15.8501 80.9152 14.0166 79.4002 12.3481 77.7317C10.6798 76.0634 9.16311 74.228 7.84024 72.2768C6.5051 70.3074 5.35571 68.2028 4.42395 66.0214C3.47529 63.8003 2.74283 61.4768 2.24681 59.1154C1.73804 56.6934 1.47194 54.2011 1.45568 51.708V7.75663C4.05086 8.94518 6.50128 10.2744 8.26292 12.2762C12.5113 17.1065 12.07 25.7968 16.3275 30.6362V30.6379C20.8921 35.207 29.2038 36.0729 33.4686 40.9195C37.7189 45.7424 37.3157 54.4802 41.5659 59.3196C46.1395 63.8868 54.3785 64.6815 58.6433 69.5281C60.8278 72.0034 61.8154 75.5814 62.8219 79.0938C61.5563 80.2315 60.2125 81.2835 58.8095 82.2339C56.8431 83.5658 54.7435 84.71 52.5684 85.6344ZM75.1516 51.7078C75.1355 54.2008 74.8693 56.693 74.3607 59.1147C73.8646 61.4761 73.1322 63.7995 72.1835 66.0206C71.6065 67.3715 70.946 68.6929 70.2095 69.971C69.3434 67.1741 68.3288 64.5105 66.5518 62.4893C62.2779 57.6335 53.9844 56.912 49.3707 52.3667C45.46 47.226 45.6653 38.7658 41.4005 33.9264C37.1338 29.0724 28.7459 28.2375 24.1322 23.685C20.2143 18.546 20.4268 10.0841 16.162 5.2373C14.7535 3.63734 12.8935 2.47337 10.8686 1.46689H70.4734C71.1056 1.46689 71.7181 1.59144 72.294 1.83683C72.8509 2.07419 73.3514 2.41439 73.7816 2.84797C74.2117 3.28155 74.5493 3.78599 74.7848 4.34732C75.0284 4.92778 75.1518 5.54504 75.1518 6.18239L75.1516 51.7078Z" fill="white"/>
<path d="M69.1027 4.02368H40.515C39.887 4.02368 39.3031 4.30829 38.9131 4.80454C38.5232 5.30078 38.3819 5.93877 38.5257 6.55491L39.1694 9.31369C39.2744 9.76381 39.5302 10.1697 39.8897 10.4568C40.2492 10.7438 40.6998 10.9019 41.1585 10.9019H68.4618C68.9208 10.9019 69.3717 10.7436 69.7314 10.4561C70.0911 10.1686 70.3468 9.76221 70.4514 9.31176L71.0922 6.55298C71.2352 5.93701 71.0936 5.2995 70.7036 4.80373C70.3137 4.30796 69.7304 4.02368 69.1027 4.02368ZM69.6753 6.21856L69.0345 8.97734C68.9718 9.24684 68.7365 9.43486 68.4619 9.43486H41.1587C40.8845 9.43486 40.649 9.24683 40.5863 8.97782L39.9426 6.21904C39.9014 6.04178 39.9418 5.8581 40.0541 5.7154C40.1663 5.57253 40.3344 5.49074 40.515 5.49074H69.1027C69.35 5.49074 69.4975 5.63135 69.5635 5.71524C69.7172 5.91049 69.6995 6.11442 69.6753 6.21856Z" fill="white"/>
<path d="M67.1407 12.3523H42.4763C41.8596 12.3523 41.2825 12.6286 40.8926 13.1104C40.5028 13.5921 40.3505 14.2176 40.4746 14.8265L41.0366 17.5851C41.131 18.0484 41.3832 18.4682 41.7469 18.7669C42.1106 19.0657 42.5691 19.2304 43.0384 19.2304H66.5805C67.0498 19.2304 67.5087 19.0657 67.8726 18.7664C68.2362 18.4672 68.4885 18.0473 68.5825 17.5837L69.1428 14.825C69.2664 14.2163 69.1138 13.5912 68.7241 13.1097C68.3344 12.6282 67.7571 12.3523 67.1407 12.3523ZM67.7168 14.531L67.1565 17.2896C67.1007 17.5642 66.8585 17.7635 66.5805 17.7635H43.0384C42.7605 17.7635 42.5183 17.5644 42.4623 17.2901L41.9001 14.5314C41.8512 14.2915 41.9545 14.1191 42.0205 14.0376C42.0865 13.9561 42.2332 13.8195 42.4762 13.8195H67.1406C67.3834 13.8195 67.5302 13.9561 67.5962 14.0374C67.6621 14.1189 67.7654 14.2911 67.7168 14.531Z" fill="white"/>
<path d="M65.4259 20.6863H44.1922C43.5854 20.6863 43.0141 20.9553 42.6247 21.4244C42.2354 21.8935 42.0736 22.5078 42.1809 23.1098L42.6711 25.863C42.8462 26.8457 43.692 27.5589 44.6825 27.5589H64.9366C65.9275 27.5589 66.7733 26.8454 66.9481 25.8623L67.4376 23.1092C67.5445 22.5074 67.3826 21.8932 66.9932 21.4242C66.6039 20.9553 66.0326 20.6863 65.4259 20.6863ZM66.0048 22.8505L65.5154 25.6036C65.4651 25.8865 65.2217 26.0918 64.9366 26.0918H44.6825C44.3974 26.0918 44.1541 25.8866 44.1037 25.6038L43.6134 22.8506C43.5712 22.6134 43.6753 22.4448 43.7411 22.3656C43.807 22.2862 43.9532 22.1532 44.1922 22.1532H65.4259C65.6649 22.1532 65.8111 22.2862 65.877 22.3655C65.9428 22.4448 66.0469 22.6135 66.0048 22.8505Z" fill="white"/>
<path d="M30.8673 48.4329C30.6312 48.4329 30.3855 48.4529 30.1294 48.4957C26.4567 49.1076 23.5414 52.3411 22.7986 56.965H22.8005L23.3381 56.9486C23.3381 56.9486 23.3384 56.9478 23.3384 56.9474L24.3553 56.9028C25.0405 55.1687 27.359 53.1051 28.838 53.1051C29.182 53.1051 29.4805 53.2167 29.7026 53.4701C30.8724 54.8055 26.8435 57.1969 27.9244 58.9928C28.1299 59.3446 28.6865 59.5593 29.1251 59.5593C29.3105 59.5593 29.4748 59.521 29.5827 59.4384C29.6758 59.3675 29.7515 59.3325 29.7515 59.3325C29.5373 58.1726 30.1621 58.0226 30.6835 57.6646L33.061 56.0204C34.4343 55.0741 34.8375 53.5962 34.8137 52.3411C34.7771 50.7486 33.4 48.4329 30.8673 48.4329ZM33.12 53.7269C32.932 54.1765 32.6441 54.5307 32.2396 54.8094L32.2386 54.81L32.2377 54.8107L30.7959 55.8077C30.9185 55.605 31.0287 55.3987 31.1187 55.1883C31.6983 53.8329 31.1639 52.9216 30.7935 52.4986C30.307 51.9436 29.6125 51.6381 28.8381 51.6381C27.8078 51.6381 26.7994 52.1687 26.0593 52.6881C26.1862 52.5181 26.3188 52.354 26.4567 52.1965C27.531 50.9695 28.8832 50.1901 30.367 49.943C30.5385 49.9144 30.7069 49.8999 30.8673 49.8999C31.2412 49.8999 31.5896 49.979 31.9025 50.1349C32.1887 50.2774 32.4483 50.4836 32.6744 50.7478C33.164 51.3202 33.349 51.9797 33.3589 52.3723C33.3678 52.8639 33.285 53.3321 33.12 53.7269Z" fill="white"/>
<path d="M9.92498 56.0204L12.3025 57.6646C12.8239 58.0226 13.4486 58.1726 13.2345 59.3325C13.2345 59.3325 13.3102 59.3675 13.4033 59.4384C13.5112 59.5209 13.6755 59.5593 13.8609 59.5593C14.2995 59.5593 14.8561 59.3446 15.0616 58.9928C16.1423 57.1969 12.1136 54.8055 13.2834 53.4701C13.5055 53.2168 13.8041 53.1051 14.148 53.1051C15.6271 53.1051 17.9455 55.1685 18.6307 56.9028L19.6476 56.9474C19.6476 56.9474 19.6479 56.9482 19.6479 56.9486L20.1855 56.965H20.1874C19.4446 52.3413 16.5293 49.1078 12.8566 48.4957C12.6007 48.4531 12.3547 48.4329 12.1187 48.4329C9.58569 48.4329 8.20878 50.7486 8.17211 52.3411C8.14851 53.5962 8.55189 55.0741 9.92498 56.0204ZM9.62731 52.3722C9.63719 51.9796 9.82214 51.32 10.3116 50.7476C10.5375 50.4834 10.7973 50.2772 11.0833 50.1347C11.3963 49.9788 11.7447 49.8998 12.1187 49.8998C12.2793 49.8998 12.4475 49.9142 12.6192 49.9428C14.1029 50.19 15.4551 50.9694 16.5294 52.1964C16.6673 52.3538 16.8 52.5179 16.9269 52.6879C16.1868 52.1686 15.1782 51.6379 14.148 51.6379C13.3736 51.6379 12.6791 51.9436 12.1922 52.499C11.8221 52.9214 11.2877 53.8328 11.8673 55.1882C11.9573 55.3987 12.0675 55.6049 12.1901 55.8075L10.7483 54.8105L10.7474 54.8099L10.7464 54.8092C10.3419 54.5306 10.054 54.1764 9.86599 53.7267C9.70097 53.3319 9.61838 52.8638 9.62731 52.3722Z" fill="white"/>
<path d="M21.3368 56.9958H22.4901C23.2475 50.7827 26.8349 50.5122 26.7478 47.2148C26.6933 44.9733 22.6174 41.6538 21.4876 40.0005C20.3596 41.6684 16.2819 44.9587 16.2274 47.2148C16.1475 50.5122 19.7256 50.7827 20.4922 56.9958H21.3368ZM17.6823 47.2504C17.6839 47.1821 17.7065 46.9846 17.8803 46.6255C18.0322 46.3111 18.2655 45.9438 18.5732 45.5332C19.2017 44.6948 20.0503 43.7974 20.7988 43.0058C21.0407 42.75 21.2725 42.5049 21.4898 42.27C21.6984 42.4954 21.9202 42.7304 22.1515 42.9753C22.9042 43.7727 23.7574 44.6765 24.3918 45.5222C25.2154 46.6203 25.2896 47.1227 25.2928 47.2506V47.2522V47.2538C25.3164 48.1486 24.9485 48.6494 24.1143 49.697C23.2586 50.7714 22.1564 52.1556 21.4898 54.5439C20.821 52.1551 19.7189 50.7711 18.8636 49.6968C18.0289 48.6484 17.6606 48.147 17.6823 47.2504Z" fill="white"/>
<path d="M21.6384 63.3391H20.485C19.7277 69.5522 16.1403 69.8227 16.2274 73.1201C16.2819 75.3616 20.3578 78.6811 21.4876 80.3344C22.6156 78.6665 26.6933 75.3762 26.7478 73.1201C26.8277 69.8227 23.2496 69.5522 22.483 63.3391H21.6384ZM25.2929 73.0845C25.2913 73.1528 25.2687 73.3503 25.0949 73.7094C24.9429 74.0238 24.7097 74.3911 24.402 74.8017C23.7735 75.6401 22.9249 76.5375 22.1764 77.3291C21.9345 77.5849 21.7027 77.83 21.4854 78.0649C21.2768 77.8395 21.055 77.6045 20.8237 77.3596C20.071 76.5622 19.2178 75.6584 18.5834 74.8127C17.7598 73.7146 17.6856 73.2122 17.6824 73.0843V73.0827V73.0811C17.6588 72.1863 18.0267 71.6855 18.8608 70.6379C19.7165 69.5635 20.8189 68.1793 21.4854 65.791C22.1542 68.1798 23.2562 69.5638 24.1116 70.6381C24.9463 71.6865 25.3145 72.1879 25.2929 73.0845Z" fill="white"/>
<path d="M21.5123 57.186C20.5203 57.186 19.5078 57.1505 18.5246 57.0839L18.5228 57.082V57.3049C18.1759 57.3615 18.0251 57.6629 18.0015 58.1398H24.9927C25.0091 57.5588 24.8347 57.3049 24.4642 57.3049V57.0674C23.538 57.1481 22.536 57.186 21.5123 57.186Z" fill="white"/>
<path d="M18.5245 63.2017C19.5109 63.1313 20.5267 63.0958 21.5218 63.0958C22.5422 63.0958 23.5406 63.1333 24.4639 63.2091V62.9716C24.8344 62.9716 25.0089 62.7177 24.9925 62.1367H18.0012C18.0248 62.6135 18.1756 62.9242 18.5226 62.9716V63.2017H18.5245Z" fill="white"/>
<path d="M26.3606 60.1434C26.3606 59.2044 25.6812 58.4426 24.8438 58.4426H18.145C17.3078 58.4426 16.6211 59.2063 16.6211 60.1434C16.6211 61.0804 17.3078 61.8442 18.145 61.8442H24.8438C25.681 61.8442 26.3606 61.0732 26.3606 60.1434ZM24.8191 60.3772H18.1675C18.1369 60.3528 18.0768 60.2713 18.0768 60.1434C18.0768 60.0154 18.135 59.933 18.1648 59.9095H24.8223C24.8512 59.9345 24.9052 60.014 24.9052 60.1434C24.9052 60.2727 24.8494 60.3512 24.8191 60.3772Z" fill="white"/>
<path d="M33.061 64.2959L30.6835 62.6518C30.1621 62.2937 29.5374 62.1438 29.7515 60.9838C29.7515 60.9838 29.6758 60.9488 29.5827 60.8779C29.4748 60.7955 29.3105 60.7571 29.1251 60.7571C28.6865 60.7571 28.1299 60.9718 27.9244 61.3236C26.8437 63.1194 30.8724 65.5108 29.7026 66.8463C29.4805 67.0995 29.1819 67.2112 28.838 67.2112C27.3589 67.2112 25.0405 65.1478 24.3553 63.4135L23.3384 63.369C23.3384 63.369 23.3381 63.3682 23.3381 63.3677L22.8005 63.3513H22.7986C23.5414 67.975 26.4567 71.2085 30.1294 71.8206C30.3853 71.8632 30.6313 71.8835 30.8673 71.8835C33.4003 71.8835 34.7772 69.5678 34.8139 67.9752C34.8375 66.7201 34.4341 65.2423 33.061 64.2959ZM33.3587 67.9442C33.3488 68.3366 33.1639 68.9963 32.6744 69.5687C32.4485 69.8329 32.1887 70.0391 31.9027 70.1816C31.5897 70.3375 31.2413 70.4166 30.8673 70.4166C30.7067 70.4166 30.5385 70.4021 30.3668 70.3735C28.8831 70.1264 27.5309 69.347 26.4566 68.12C26.3187 67.9625 26.186 67.7984 26.0591 67.6284C26.7992 68.1478 27.8078 68.6784 28.838 68.6784C29.6124 68.6784 30.3069 68.3728 30.7938 67.8174C31.1639 67.3949 31.6983 66.4836 31.1187 65.1282C31.0287 64.9177 30.9185 64.7115 30.7959 64.5088L32.2377 65.5058L32.2386 65.5065L32.2396 65.5071C32.6441 65.7858 32.932 66.14 33.12 66.5896C33.285 66.9843 33.3676 67.4526 33.3587 67.9442Z" fill="white"/>
<path d="M20.1873 63.3515H20.1854L19.6477 63.3679C19.6477 63.3679 19.6474 63.3687 19.6474 63.3692L18.6305 63.4137C17.9454 65.1479 15.6268 67.2115 14.1479 67.2115C13.8038 67.2115 13.5053 67.0999 13.2833 66.8465C12.1134 65.5111 16.1423 63.1197 15.0615 61.3238C14.856 60.972 14.2994 60.7573 13.8607 60.7573C13.6753 60.7573 13.5111 60.7956 13.4031 60.8782C13.31 60.9492 13.2343 60.9841 13.2343 60.9841C13.4486 62.144 12.8237 62.294 12.3024 62.652L9.92483 64.2962C8.55159 65.2425 8.14837 66.7204 8.17212 67.9754C8.20863 69.568 9.58603 71.8837 12.1187 71.8837C12.3548 71.8837 12.6005 71.8636 12.8566 71.8209C16.5293 71.2089 19.4445 67.9754 20.1873 63.3515ZM16.5293 68.1199C15.455 69.3469 14.1028 70.1263 12.619 70.3734C12.4475 70.402 12.2791 70.4165 12.1187 70.4165C11.7448 70.4165 11.3965 70.3374 11.0835 70.1816C10.7973 70.039 10.5377 69.8328 10.3116 69.5686C9.822 68.9962 9.63705 68.3367 9.62716 67.9443C9.61823 67.4527 9.70082 66.9844 9.86584 66.5895C10.0538 66.1399 10.3418 65.7857 10.7463 65.507L10.7472 65.5064L10.7482 65.5058L12.19 64.5088C12.0674 64.7114 11.9572 64.9178 11.8671 65.1281C11.2876 66.4835 11.822 67.3948 12.1924 67.8178C12.6788 68.3729 13.3733 68.6784 14.1477 68.6784C15.1779 68.6784 16.1865 68.1477 16.9266 67.6283C16.7997 67.7983 16.6672 67.9624 16.5293 68.1199Z" fill="white"/>
</g>
<defs>
<clipPath id="clip0_880_573">
<rect width="77" height="90" fill="white"/>
</clipPath>
</defs>
</svg>
