<?xml version="1.0" encoding="utf-8"?>
<!-- Generator: Adobe Illustrator 27.9.0, SVG Export Plug-In . SVG Version: 6.00 Build 0)  -->
<svg version="1.1" id="Warstwa_1" xmlns="http://www.w3.org/2000/svg" xmlns:xlink="http://www.w3.org/1999/xlink" x="0px" y="0px"
	 viewBox="0 0 91 104.6" style="enable-background:new 0 0 91 104.6;" xml:space="preserve">
<style type="text/css">
	.st0{fill:#FFFFFF;}
	.st1{fill:#003344;}
	.st2{fill:#247A24;}
	.st3{fill:#FFD800;}
	.st4{fill-rule:evenodd;clip-rule:evenodd;fill:#FFFFFF;}
	.st5{fill:#C9A90A;}
</style>
<g>
	<g>
		<path class="st0" d="M89,2h-2.6H4.6H2v2.6v54.9v0l0,0c0,5.8,1.2,11.5,3.5,16.8c1.1,2.6,2.5,5,4,7.3c1.6,2.3,3.4,4.4,5.3,6.4
			c2,2,4.1,3.7,6.4,5.3c2.3,1.6,4.8,2.9,7.4,4c5.3,2.3,11,3.4,16.8,3.4s11.5-1.1,16.8-3.4c2.6-1.1,5-2.4,7.4-4
			c2.3-1.5,4.5-3.3,6.4-5.3c2-2,3.8-4.1,5.3-6.4c1.6-2.3,2.9-4.8,4-7.3c2.3-5.3,3.5-11,3.5-16.8l0,0v0V4.6V2L89,2z"/>
		<path class="st1" d="M89,2v2.6v54.9v0l0,0c0,5.8-1.2,11.5-3.5,16.8c-1.1,2.6-2.5,5-4,7.3c-1.6,2.3-3.4,4.4-5.3,6.4
			c-2,2-4.1,3.7-6.4,5.3c-2.3,1.6-4.8,2.9-7.4,4c-5.3,2.3-11,3.4-16.8,3.4s-11.5-1.1-16.8-3.4c-2.6-1.1-5-2.4-7.4-4
			c-2.3-1.5-4.5-3.3-6.4-5.3c-2-2-3.8-4.1-5.3-6.4c-1.6-2.3-2.9-4.8-4-7.3C3.2,70.9,2,65.2,2,59.4l0,0v0V4.6V2h2.6h81.9H89 M89,0
			h-2.6H4.6H2C0.9,0,0,0.9,0,2v2.6v54.9c0,6.1,1.3,12,3.7,17.6c1.2,2.7,2.6,5.3,4.2,7.7c1.6,2.4,3.5,4.6,5.6,6.7
			c2.1,2,4.3,3.9,6.7,5.5c2.4,1.6,5,3,7.7,4.2c5.6,2.4,11.5,3.6,17.6,3.6c6.1,0,12-1.2,17.6-3.6c2.7-1.1,5.3-2.5,7.7-4.2
			c2.4-1.6,4.7-3.5,6.7-5.5c2.1-2,3.9-4.3,5.6-6.7c1.6-2.4,3.1-5,4.2-7.7c2.4-5.6,3.6-11.5,3.7-17.6l0-54.9V2C91,0.9,90.1,0,89,0
			L89,0z"/>
	</g>
	<g>
		<path class="st2" d="M67.3,78.3c-4.6-5.1-13.4-6-18.3-10.8c-4.5-5.1-4.1-14.4-8.7-19.5c-4.6-5.1-13.4-6.1-18.3-10.9v0
			c-4.6-5.1-4.1-14.4-8.6-19.5c-2.2-2.5-5.6-4-8.8-5.4v47.2C4.7,81.8,23,100,45.5,100c10.2,0,19.5-3.7,26.7-9.9
			C70.9,86,69.9,81.3,67.3,78.3z"/>
		<path class="st2" d="M13.2,4.6c3.3,1.4,6.5,3.1,8.7,5.6c4.6,5.1,4.3,14.1,8.5,19.6c4.9,4.8,13.9,5.7,18.5,10.9
			c4.6,5.1,4.3,14.1,8.5,19.6c4.9,4.8,13.8,5.6,18.4,10.7c2.3,2.6,3.5,6.3,4.6,9.9c3.9-6.2,6.1-13.5,6.2-21.3V4.6H13.2z"/>
	</g>
	<path class="st3" d="M33,68.3c0,0.6-0.2,1.1-0.6,1.4h-9.1c-0.4-0.3-0.6-0.8-0.6-1.4c0-0.6,0.3-1.1,0.7-1.4h9.1
		C32.8,67.2,33,67.8,33,68.3z"/>
	<g>
		<path class="st4" d="M49.5,9.9l1.1,4.8c0,0.1,0.1,0.2,0.3,0.2h29c0.1,0,0.2-0.1,0.3-0.2l1.1-4.8c0-0.2-0.1-0.3-0.3-0.3H49.8
			C49.6,9.6,49.5,9.8,49.5,9.9z"/>
		<path class="st4" d="M51.5,18.2l1,4.8c0,0.1,0.1,0.2,0.3,0.2h25.3c0.1,0,0.2-0.1,0.3-0.2l1-4.8c0-0.2-0.1-0.3-0.3-0.3H51.8
			C51.6,17.9,51.5,18,51.5,18.2z"/>
		<path class="st4" d="M53.3,26.5l0.9,4.8c0,0.1,0.1,0.2,0.3,0.2h22c0.1,0,0.2-0.1,0.3-0.2l0.9-4.8c0-0.2-0.1-0.3-0.3-0.3H53.5
			C53.4,26.2,53.2,26.3,53.3,26.5z"/>
	</g>
	<path class="st5" d="M32.4,66.9h-9.1c0.1,0,0.1-0.1,0.2-0.1c0,0,0-0.1,0-0.1h8.7c0,0,0,0.1,0,0.1C32.3,66.8,32.3,66.9,32.4,66.9z"
		/>
	<path class="st5" d="M32.4,69.8c-0.1,0.1-0.1,0.1-0.2,0.2c0,0.1,0,0.1,0,0.2h-8.7c0-0.1,0-0.1,0-0.2c-0.1,0-0.1-0.1-0.2-0.1H32.4z"
		/>
	<g>
		<path class="st0" d="M25.5,65.3l-0.8-0.2c-0.9-2.3-4.3-5.3-5.6-3.8c-1.2,1.4,3.1,4,1.9,5.9c-0.3,0.4-1,0.7-1.5,0.6
			c-0.1,0-0.2-0.2-0.1-0.3c1-0.8,1-1.8-0.2-2.8l-2.3-2c-1.5-1.3-0.8-4.1,1.5-4.2C21.1,58.3,24.3,61.2,25.5,65.3z M19,66.8
			c0,0.1,0.1,0.1,0.2,0.1c0,0,0,0,0-0.1c0.1-0.2,0.2-0.2,0.2-0.4c0.1-0.2,0-0.3,0-0.4c0-0.2-0.1-0.3-0.1-0.4c0,0,0,0,0-0.1
			c-0.1-0.1-0.1-0.2-1.3-1.2c-0.2-0.2-0.4-0.3-0.5-0.4c-0.5-0.4-0.7-0.6-1.1-1c-0.2-0.2-0.3-0.3-0.4-0.5c-0.6-0.9-0.5-1.8-0.4-2.2
			c0-0.3,0.2-0.9,0.7-1.5c0.7-0.8,1.7-0.8,2.2-0.8c0.9,0,1.9,0.3,2.5,0.6c1.8,0.9,2.9,2.3,3.3,2.9c0.9,1.1,1.3,2.5,1.7,3.9l0.3,0
			c-0.8-4.9-3.7-8.3-7.6-9c-3.2-0.5-5.1,1.9-5.1,3.8c0,1.3,0.4,2.9,1.9,3.9l2.5,1.7C18.4,66,18.9,66.2,19,66.8z"/>
		<path class="st0" d="M37.2,58.4c2.3,0.1,3,2.9,1.5,4.2l-2.3,2c-1.1,0.9-1.1,1.9-0.2,2.8c0.1,0.1,0.1,0.3-0.1,0.3
			c-0.5,0.1-1.2-0.2-1.5-0.6c-1.2-1.9,3.1-4.4,1.9-5.9c-1.3-1.4-4.7,1.6-5.6,3.8l-0.8,0.2C31.4,61.2,34.6,58.3,37.2,58.4z
			 M37.6,65.7l2.5-1.7c1.5-1,1.9-2.6,1.9-3.9c0-1.8-1.9-4.3-5.1-3.8c-3.9,0.6-6.8,4.1-7.6,9l0.3,0c0.4-1.4,0.8-2.8,1.7-3.9
			c0.4-0.6,1.5-2,3.3-2.9c0.6-0.3,1.6-0.7,2.5-0.6c0.5,0,1.5,0.1,2.2,0.8c0.6,0.6,0.7,1.3,0.7,1.5c0.1,0.4,0.2,1.3-0.4,2.2
			c-0.1,0.1-0.2,0.3-0.4,0.5c-0.3,0.4-0.6,0.6-1.1,1c-0.1,0.1-0.3,0.3-0.5,0.4c-1.2,1-1.3,1.1-1.3,1.2c0,0,0,0,0,0.1
			c0,0.1-0.1,0.2-0.1,0.4c0,0.1,0,0.2,0,0.4c0,0.1,0.1,0.2,0.2,0.4c0,0,0,0,0,0.1c0.1,0.1,0.2,0,0.2-0.1
			C36.7,66.2,37.2,66,37.6,65.7z"/>
		<g>
			<path class="st0" d="M33.5,54.6c-0.1-2.1-3.6-5.3-5.2-7.2c-0.2-0.3-0.7-0.3-0.9,0c-1.6,1.9-5.1,5-5.2,7.2
				c-0.1,3.5,3.7,4.1,4.6,10.7h0.7V50.1c0-0.2,0.1-0.4,0.3-0.4c0.2,0,0.4,0.2,0.4,0.4v15.2h0.7C29.7,58.7,33.5,58.1,33.5,54.6z"/>
		</g>
	</g>
	<g>
		<path class="st0" d="M30.1,71.3l0.8,0.2c0.9,2.3,4.3,5.3,5.6,3.8c1.2-1.4-3.1-4-1.9-5.9c0.3-0.4,1-0.7,1.5-0.6
			c0.1,0,0.2,0.2,0.1,0.3c-1,0.8-1,1.8,0.2,2.8l2.3,2c1.5,1.3,0.8,4.1-1.5,4.2C34.6,78.3,31.4,75.5,30.1,71.3z M36.6,69.9
			c0-0.1-0.1-0.1-0.2-0.1c0,0,0,0,0,0.1c-0.1,0.2-0.2,0.2-0.2,0.4c-0.1,0.2,0,0.3,0,0.4c0,0.2,0.1,0.3,0.1,0.4c0,0,0,0,0,0.1
			c0.1,0.1,0.1,0.2,1.3,1.2c0.2,0.2,0.4,0.3,0.5,0.4c0.5,0.4,0.7,0.6,1.1,1c0.2,0.2,0.3,0.3,0.4,0.5c0.6,0.9,0.5,1.8,0.4,2.2
			c0,0.3-0.2,0.9-0.7,1.5c-0.7,0.8-1.7,0.8-2.2,0.8c-0.9,0-1.9-0.3-2.5-0.6c-1.8-0.9-2.9-2.3-3.3-2.9c-0.9-1.1-1.3-2.5-1.7-3.9
			l-0.3,0c0.8,4.9,3.7,8.3,7.6,9c3.2,0.5,5.1-1.9,5.1-3.8c0-1.3-0.4-2.9-1.9-3.9l-2.5-1.7C37.2,70.6,36.7,70.5,36.6,69.9z"/>
		<path class="st0" d="M18.4,78.2c-2.3-0.1-3-2.9-1.5-4.2l2.3-2c1.1-0.9,1.1-1.9,0.2-2.8c-0.1-0.1-0.1-0.3,0.1-0.3
			c0.5-0.1,1.2,0.2,1.5,0.6c1.2,1.9-3.1,4.4-1.9,5.9c1.3,1.4,4.7-1.6,5.6-3.8l0.8-0.2C24.3,75.5,21.1,78.3,18.4,78.2z M18,70.9
			l-2.5,1.7c-1.5,1-1.9,2.6-1.9,3.9c0,1.8,1.9,4.3,5.1,3.8c3.9-0.6,6.8-4.1,7.6-9l-0.3,0c-0.4,1.4-0.8,2.8-1.7,3.9
			c-0.4,0.6-1.5,2-3.3,2.9c-0.6,0.3-1.6,0.7-2.5,0.6c-0.5,0-1.5-0.1-2.2-0.8c-0.6-0.6-0.7-1.3-0.7-1.5c-0.1-0.4-0.2-1.3,0.4-2.2
			c0.1-0.1,0.2-0.3,0.4-0.5c0.3-0.4,0.6-0.6,1.1-1c0.1-0.1,0.3-0.3,0.5-0.4c1.2-1,1.3-1.1,1.3-1.2c0,0,0,0,0-0.1
			c0-0.1,0.1-0.2,0.1-0.4c0-0.1,0-0.2,0-0.4c0-0.1-0.1-0.2-0.2-0.4c0,0,0,0,0-0.1c-0.1-0.1-0.2,0-0.2,0.1
			C18.9,70.5,18.4,70.6,18,70.9z"/>
		<g>
			<path class="st0" d="M22.2,82c0.1,2.1,3.6,5.3,5.2,7.2c0.2,0.3,0.7,0.3,0.9,0c1.6-1.9,5.1-5,5.2-7.2c0.1-3.5-3.7-4.1-4.6-10.7
				h-0.7v15.2c0,0.2-0.1,0.4-0.3,0.4c-0.2,0-0.4-0.2-0.4-0.4V71.3h-0.7C25.9,77.9,22.1,78.5,22.2,82z"/>
		</g>
	</g>
	<path class="st3" d="M32.2,66.6h-8.7c0.1-0.4,0.6-1,1-1.2c0.1-0.1,0.2-0.2,0.2-0.3v0l0,0c1.1,0.1,2.1,0.1,3.2,0.1
		c1.1,0,2.2,0,3.2-0.1c0,0.1,0.1,0.2,0.2,0.3C31.6,65.6,32.1,66.1,32.2,66.6z"/>
	<path class="st3" d="M23.5,70.1h8.7c-0.1,0.5-0.6,1-1,1.2c-0.1,0.1-0.2,0.2-0.2,0.3c-1.9-0.2-4.2-0.2-6.3,0h0v0
		c0-0.1-0.1-0.2-0.2-0.3C24.1,71.1,23.6,70.5,23.5,70.1z"/>
</g>
</svg>
